<?xml version="1.0" encoding="UTF-8" standalone="no"?>
<svg
   xmlns:dc="http://purl.org/dc/elements/1.1/"
   xmlns:cc="http://creativecommons.org/ns#"
   xmlns:rdf="http://www.w3.org/1999/02/22-rdf-syntax-ns#"
   xmlns:svg="http://www.w3.org/2000/svg"
   xmlns="http://www.w3.org/2000/svg"
   xmlns:sodipodi="http://sodipodi.sourceforge.net/DTD/sodipodi-0.dtd"
   xmlns:inkscape="http://www.inkscape.org/namespaces/inkscape"
   width="2719"
   height="2690"
   viewBox="0 0 278.4256 275.48192"
   preserveAspectRatio="xMidYMid"
   version="1.1"
   id="svg24"
   sodipodi:docname="alfresco.svg"
   inkscape:version="0.92.3 (2405546, 2018-03-11)">
  <metadata
     id="metadata30">
    <rdf:RDF>
      <cc:Work
         rdf:about="">
        <dc:format>image/svg+xml</dc:format>
        <dc:type
           rdf:resource="http://purl.org/dc/dcmitype/StillImage" />
        <dc:title></dc:title>
      </cc:Work>
    </rdf:RDF>
  </metadata>
  <defs
     id="defs28" />
  <sodipodi:namedview
     pagecolor="#ffffff"
     bordercolor="#666666"
     borderopacity="1"
     objecttolerance="10"
     gridtolerance="10"
     guidetolerance="10"
     inkscape:pageopacity="0"
     inkscape:pageshadow="2"
     inkscape:window-width="1920"
     inkscape:window-height="1031"
     id="namedview26"
     showgrid="false"
     inkscape:pagecheckerboard="true"
     inkscape:snap-text-baseline="false"
     inkscape:zoom="0.26807582"
     inkscape:cx="1097.0823"
     inkscape:cy="1189.085"
     inkscape:window-x="0"
     inkscape:window-y="25"
     inkscape:window-maximized="1"
     inkscape:current-layer="svg24" />
  <path
     d="m 99.8388,177.12458 32.3,-32.302 -48.504,0.002 h -0.116 c -26.878,0 -48.667,21.79 -48.667,48.665 0,26.88 21.787,48.667 48.665,48.667 2.041,0 4.05,-0.14 6.025,-0.385 -10.622,-20.925 -7.198,-47.154 10.297,-64.647"
     id="path2"
     style="fill:#ffffff;fill-opacity:1"
     inkscape:connector-curvature="0" />
  <path
     d="m 139.2178,193.42958 v -45.678 l -34.295,34.3 -0.083,0.08 c -19.006,19.006 -19.006,49.82 0,68.826 19.006,19.006 49.82,19.006 68.825,0 1.443,-1.443 2.738,-2.975 3.963,-4.541 -22.297,-7.294 -38.408,-28.252 -38.41,-52.987"
     id="path4"
     style="fill:#ffffff;fill-opacity:1"
     inkscape:connector-curvature="0" />
  <path
     d="m 178.5958,177.11458 -32.3,-32.3 v 48.62 c 0,26.88 21.79,48.666 48.667,48.666 26.878,0 48.667,-21.787 48.667,-48.665 0,-2.041 -0.14,-4.05 -0.385,-6.025 -20.925,10.625 -47.154,7.199 -64.65,-10.296"
     id="path6"
     style="fill:#ffffff;fill-opacity:1"
     inkscape:connector-curvature="0" />
  <path
     d="m 252.4278,103.28958 c -1.442,-1.442 -2.972,-2.738 -4.539,-3.962989 -7.293,22.295989 -28.253,38.407989 -52.986,38.407989 h -45.676 l 34.376,34.378 c 19.006,19.006 49.822,19.006 68.825,0 19.006,-19.005 19.006,-49.819 0,-68.823"
     id="path8"
     style="fill:#ffffff;fill-opacity:1"
     inkscape:connector-curvature="0" />
  <path
     d="m 194.9088,33.324589 c -2.041,0 -4.05,0.139 -6.025,0.384 10.622,20.927 7.198,47.154 -10.297,64.648002 l -32.297,32.299989 h 48.62 c 26.875,0 48.664,-21.79 48.664,-48.666991 0.002,-26.878 -21.787,-48.665 -48.665,-48.665"
     id="path10"
     style="fill:#ffffff;fill-opacity:1"
     inkscape:connector-curvature="0" />
  <path
     d="m 173.5858,24.522589 c -19.006,-19.004 -49.82,-19.004 -68.825,0.002 -1.44,1.442 -2.736,2.972 -3.96,4.54 22.294,7.294 38.407,28.253 38.407,52.985 v 45.677991 l 34.295,-34.296989 0.083,-0.081 c 19.006,-19.006002 19.006,-49.820002 0,-68.827002"
     id="path12"
     style="fill:#ffffff;fill-opacity:0.99227798"
     inkscape:connector-curvature="0" />
  <path
     d="m 99.8778,98.390591 1.384,1.444 30.835,30.833989 h 0.033 V 82.046589 c 0,-26.878 -21.79,-48.667 -48.667,-48.667 -26.878,0 -48.667,21.787 -48.665,48.665 0,2.037 0.139,4.04 0.381,6.01 20.94,-10.615 47.202,-7.16 64.699,10.337002"
     id="path14"
     style="fill:#ffffff;fill-opacity:1"
     inkscape:connector-curvature="0" />
  <path
     d="m 30.6798,175.73158 a 56.105,56.105 0 0 1 1.241,-3.345 c 0.056,-0.139 0.106,-0.28 0.164,-0.415 a 54.866,54.866 0 0 1 1.606,-3.467 c 0.124,-0.25 0.253,-0.497 0.384,-0.748 a 55.713,55.713 0 0 1 1.863,-3.316 c 0.07,-0.116 0.147,-0.226 0.217,-0.338 a 54.642,54.642 0 0 1 1.976,-2.954 c 0.14,-0.199 0.28,-0.4 0.425,-0.597 a 56.745,56.745 0 0 1 2.313,-2.939 c 0.163,-0.194 0.33,-0.383 0.497,-0.572 a 55.447,55.447 0 0 1 2.431,-2.646 c 0.075,-0.075 0.143,-0.154 0.218,-0.228 a 55.476,55.476 0 0 1 2.775,-2.589 57.482,57.482 0 0 1 3.571,-2.895 c 0.133,-0.098 0.272,-0.19 0.404,-0.284 a 56.412,56.412 0 0 1 2.896,-1.97 c 0.195,-0.124 0.387,-0.252 0.584,-0.375 a 56.323,56.323 0 0 1 3.267,-1.867 c 0.234,-0.122 0.47,-0.24 0.706,-0.36 a 55.306,55.306 0 0 1 3.38,-1.599 c 0.057,-0.022 0.11,-0.05 0.167,-0.074 a 55.697,55.697 0 0 1 3.63,-1.376 57.986,57.986 0 0 1 4.498,-1.347 c 0.191,-0.046 0.388,-0.088 0.579,-0.131 1.16,-0.28 2.333,-0.52 3.519,-0.726 0.222,-0.037 0.441,-0.083 0.663,-0.116 a 55.019,55.019 0 0 1 3.905,-0.478 c 0.284,-0.025 0.57,-0.044 0.854,-0.067 a 57.37,57.37 0 0 1 4.11,-0.166 l 45.678,-0.002 -34.378,-34.378 c -19.006,-19.003991 -49.822,-19.005991 -68.825,0 -19.006,19.006 -19.006,49.82 0,68.825 a 49.392,49.392 0 0 0 4.514,3.994 c 0.052,-0.153 0.116,-0.3 0.168,-0.454"
     id="path16"
     style="fill:#ffffff;fill-opacity:1"
     inkscape:connector-curvature="0" />
  <path
     d="m 94.9368,103.36658 27.22,27.22 h -36.587 l -2.075,0.043 c -22.28,0 -41.063,-14.972 -46.837,-35.403989 18.535,-10.394002 42.429,-7.706002 58.197,8.059989 l 0.08,0.08 m 37.177,-21.329991 v 38.493991 l -25.871,-25.869989 -1.497,-1.436 c -15.756,-15.754002 -18.45,-39.625002 -8.085,-58.154002 20.457,5.758 35.452,24.554 35.452,46.85 v 0.116 m 41.624,11.277002 -27.22,27.220989 V 83.948589 l -0.043,-2.075 c 0,-22.28 14.973,-41.065 35.405,-46.837 10.394,18.535 7.706,42.428 -8.06,58.195002 l -0.082,0.08"
     id="path18"
     style="fill:#ffffff;fill-opacity:1"
     inkscape:connector-curvature="0" />
  <path
     d="m 194.8778,130.55458 h -38.494 l 25.87,-25.87 1.436,-1.496 c 15.754,-15.755991 39.624,-18.449991 58.154,-8.085989 -5.758,20.456989 -24.555,35.451989 -46.85,35.451989 h -0.116"
     id="path20"
     style="fill:#ffffff;fill-opacity:1"
     inkscape:connector-curvature="0" />
  <path
     d="m 183.5098,171.92058 -27.22,-27.22 h 36.586 l 2.075,-0.043 c 22.28,0.002 41.062,14.974 46.837,35.406 -18.538,10.392 -42.429,7.706 -58.197,-8.063 l -0.081,-0.08 m -37.102,21.29 v -38.495 l 25.87,25.87 1.499,1.437 c 15.754,15.756 18.448,39.622 8.083,58.153 -20.457,-5.758 -35.452,-24.552 -35.452,-46.851 v -0.114 m -41.367,-11.047 27.22,-27.222 v 36.586 l 0.043,2.074 c 0,22.28 -14.973,41.065 -35.404,46.84 -10.395,-18.54 -7.706,-42.431 8.06,-58.198 l 0.08,-0.08 m -21.353,-37.262 h 38.494 l -25.87,25.87 -1.436,1.497 c -15.756,15.756 -39.625,18.45 -58.156,8.085 5.76,-20.459 24.554,-35.452 46.852,-35.452 h 0.116"
     id="path22"
     style="fill:#ffffff;fill-opacity:1"
     inkscape:connector-curvature="0" />
</svg>
