<?xml version="1.0" encoding="UTF-8" standalone="no"?>
<svg
   xmlns:dc="http://purl.org/dc/elements/1.1/"
   xmlns:cc="http://creativecommons.org/ns#"
   xmlns:rdf="http://www.w3.org/1999/02/22-rdf-syntax-ns#"
   xmlns:svg="http://www.w3.org/2000/svg"
   xmlns="http://www.w3.org/2000/svg"
   id="svg8"
   version="1.1"
   viewBox="0 0 248.666 139.02267"
   height="139.02267mm"
   width="248.666mm">
  <defs
     id="defs2" />
  <metadata
     id="metadata5">
    <rdf:RDF>
      <cc:Work
         rdf:about="">
        <dc:format>image/svg+xml</dc:format>
        <dc:type
           rdf:resource="http://purl.org/dc/dcmitype/StillImage" />
        <dc:title></dc:title>
      </cc:Work>
    </rdf:RDF>
  </metadata>
  <g
     transform="translate(18.910796,-20.356356)"
     id="layer1">
    <g
       transform="translate(-0.4572114,-33.658876)"
       id="g826">
      <path
         id="path842"
         d="M -18.453585,123.52657 V 54.015232 h 124.332995 124.333 v 69.511338 69.51133 h -124.333 -124.332995 z"
         style="fill:#fefefe;stroke-width:0.08466667" />
      <path
         id="path840"
         d="m 168.53275,168.15277 c -0.1397,-0.0342 -0.3302,-0.10442 -0.42333,-0.15611 -0.0931,-0.0517 -2.95866,-2.88724 -6.36782,-6.30121 -4.32777,-4.33386 -6.23782,-6.30222 -6.32883,-6.522 -0.15029,-0.36292 -0.16777,-0.80344 -0.0447,-1.12706 0.11398,-0.2998 12.30512,-12.60977 12.74882,-12.87309 0.39633,-0.23521 0.91077,-0.26879 1.32877,-0.0867 0.15983,0.0696 4.69976,4.54946 10.98266,10.83733 5.89061,5.89528 10.75438,10.71868 10.80838,10.71868 0.12396,0 8.07241,-8.03777 8.07241,-8.16313 0,-0.0509 -1.80038,-1.89263 -4.00085,-4.09274 l -4.00086,-4.00018 -3.51293,3.51369 c -1.93211,1.93253 -3.56983,3.51369 -3.63937,3.51369 -0.16633,0 -2.87999,-2.71179 -2.87999,-2.87799 0,-0.18129 9.21943,-9.37173 9.50935,-9.47946 0.30446,-0.11311 0.74279,-0.11313 1.04731,-2e-5 0.35596,0.13222 12.62014,12.40124 12.81807,12.82314 0.19325,0.4119 0.20298,0.71312 0.036,1.11281 -0.15279,0.36565 -12.24302,12.57746 -12.76627,12.89464 -0.40575,0.24594 -0.98717,0.27327 -1.38464,0.0651 -0.14587,-0.0764 -5.06077,-4.95969 -10.922,-10.85176 -5.86125,-5.89207 -10.69476,-10.71306 -10.74114,-10.71332 -0.10231,-8.4e-4 -8.17067,8.05429 -8.17067,8.15698 0,0.13678 7.98438,8.18322 8.12009,8.18322 0.0746,0 1.69743,-1.5621 3.60624,-3.47133 1.90882,-1.90923 3.50926,-3.47133 3.55656,-3.47133 0.10151,0 2.92044,2.80618 2.92044,2.90724 0,0.11414 -9.15394,9.20101 -9.39072,9.3219 -0.30988,0.15823 -0.68508,0.21142 -0.98094,0.13906 z m -95.305001,-2.16778 c -3.821599,-0.5214 -6.407844,-2.67418 -7.267779,-6.04969 -0.250233,-0.98223 -0.365449,-2.14909 -0.309525,-3.13473 0.06168,-1.08719 0.203822,-1.76181 0.585048,-2.77673 0.981041,-2.61185 3.079538,-4.5135 5.783301,-5.24082 0.771177,-0.20745 0.977002,-0.22651 2.491621,-0.23077 1.986356,-0.006 2.680581,0.13298 4.044281,0.80717 2.70438,1.337 4.255364,4.41412 4.154272,8.24196 -0.02206,0.83524 -0.05593,1.08583 -0.15522,1.14848 -0.07683,0.0485 -2.577185,0.0806 -6.328833,0.0814 -5.00667,0.001 -6.201833,0.0224 -6.201833,0.11051 0,0.22989 0.261044,1.09687 0.433137,1.43854 0.466319,0.92578 1.292869,1.58709 2.481225,1.98518 0.647852,0.21703 0.768926,0.22913 2.292638,0.22909 1.359662,-4e-5 1.746148,-0.03 2.496862,-0.19345 1.135668,-0.2473 2.023694,-0.54188 2.853148,-0.94646 0.362416,-0.17678 0.688052,-0.30342 0.723629,-0.28143 0.03559,0.022 0.06469,0.79931 0.06469,1.72737 v 1.68739 l -0.656167,0.32769 c -2.058822,1.02817 -4.856378,1.42785 -7.484499,1.06929 z m 5.456868,-10.52564 c -0.02695,-0.58978 -0.461179,-1.40209 -1.065056,-1.99241 -0.88436,-0.86448 -1.845631,-1.23653 -3.193813,-1.23612 -1.754454,8.5e-4 -3.118011,0.6501 -3.889942,1.85305 -0.274989,0.42854 -0.568655,1.43283 -0.483701,1.65422 0.04547,0.11848 0.511523,0.13035 4.350114,0.11076 l 4.299196,-0.022 z m 28.217973,10.48187 c -3.45775,-0.54356 -5.9642,-3.0092 -6.75291,-6.64299 -0.0666,-0.3066 -0.10901,-1.06183 -0.10713,-1.905 0.004,-1.57998 0.13778,-2.30251 0.65565,-3.52931 0.79429,-1.88157 2.49034,-3.60252 4.27403,-4.33678 1.09061,-0.44894 1.71577,-0.55824 3.19318,-0.55824 1.78638,0 2.96423,0.24343 4.33011,0.89493 0.28606,0.13644 0.56228,0.24807 0.61384,0.24807 0.0559,0 0.0937,-0.16893 0.0937,-0.41834 0,-0.23008 0.0365,-0.44087 0.081,-0.46842 0.10561,-0.0653 3.70738,-0.72191 3.95978,-0.72191 h 0.19332 l -0.0216,8.5725 -0.0216,8.5725 h -2.07433 -2.07433 l -0.0423,-0.55033 c -0.0276,-0.35897 -0.0771,-0.54365 -0.14226,-0.53113 -0.055,0.0106 -0.33025,0.16806 -0.61173,0.34999 -0.65206,0.42144 -1.40547,0.72257 -2.257,0.90208 -0.79388,0.16736 -2.58056,0.23383 -3.2895,0.12238 z m 3.36045,-3.89917 c 0.74979,-0.25258 1.21451,-0.54941 1.84098,-1.17588 0.94593,-0.94593 1.33624,-1.81323 1.41052,-3.13427 0.0824,-1.46495 -0.38624,-2.70192 -1.41126,-3.72533 -0.94431,-0.94282 -1.9613,-1.35467 -3.3452,-1.35467 -1.71405,0 -3.01833,0.70558 -3.93986,2.13136 -0.81057,1.25412 -0.97252,3.02004 -0.4139,4.51311 0.41595,1.11171 1.51737,2.235 2.61618,2.66811 0.95005,0.37447 2.26764,0.40599 3.24254,0.0776 z m 32.15004,3.84935 c -0.90015,-0.16421 -2.36304,-0.63629 -2.921,-0.94262 l -0.42333,-0.23242 -0.0228,-1.84123 c -0.0129,-1.04183 0.01,-1.84123 0.0528,-1.84123 0.0416,0 0.24239,0.0912 0.44615,0.20275 0.66608,0.36451 1.92243,0.81911 2.89145,1.04627 0.82807,0.19411 1.13564,0.22296 2.38972,0.22419 2.39475,0.002 3.34433,-0.4036 3.34433,-1.42965 0,-0.80682 -0.61985,-1.15233 -3.34741,-1.86588 -2.41623,-0.63211 -3.44966,-1.04158 -4.4893,-1.77877 -1.15141,-0.81644 -1.71465,-1.88092 -1.7905,-3.38391 -0.19921,-3.94735 3.48253,-6.12322 8.86042,-5.23643 0.93316,0.15387 1.81612,0.42809 2.58405,0.80252 0.94049,0.45857 0.89208,0.33709 0.89208,2.23853 0,1.2738 -0.025,1.65997 -0.10978,1.69249 -0.0604,0.0232 -0.39627,-0.0902 -0.74644,-0.25204 -1.37338,-0.63453 -2.89421,-1.01894 -4.40894,-1.11439 -1.01552,-0.064 -1.68927,0.0375 -2.33163,0.35131 -0.53058,0.25918 -0.79312,0.59932 -0.84964,1.10075 -0.0894,0.79309 0.45158,1.09851 3.13478,1.76982 3.17223,0.79365 4.23009,1.25643 5.25997,2.30107 0.8156,0.82729 1.15234,1.72728 1.15234,3.07979 0,2.4631 -1.56515,4.19784 -4.48635,4.97246 -0.71497,0.18958 -1.00476,0.21659 -2.58331,0.24072 -1.33853,0.0205 -1.95589,-0.005 -2.49767,-0.1041 z m -52.266577,-0.12396 c -2.621314,-0.27683 -4.238524,-1.53984 -4.938658,-3.85703 -0.138142,-0.45719 -0.151824,-1.16282 -0.176936,-9.12458 -0.01496,-4.746 0.0025,-8.65847 0.03898,-8.69439 0.123935,-0.12229 4.111905,-0.81836 4.192118,-0.73171 0.01078,0.0116 0.03935,3.90737 0.0635,8.65717 0.04331,8.51907 0.04626,8.64001 0.217822,8.93205 0.215155,0.36626 0.635804,0.65789 1.042052,0.72244 0.587561,0.0934 0.559731,-0.005 0.584852,2.07035 0.02267,1.87292 -0.01068,2.13703 -0.266015,2.1069 -0.05251,-0.006 -0.393479,-0.0427 -0.757715,-0.0812 z m -28.207983,-0.0727 -1.014894,-0.0465 -2.185477,-2.70933 c -1.202012,-1.49013 -2.237891,-2.7211 -2.301952,-2.73549 -0.06737,-0.0151 -1.055388,1.13616 -2.343279,2.7305 l -2.226803,2.75666 h -2.52085 c -1.978941,0 -2.52085,-0.0231 -2.52085,-0.10733 0,-0.059 1.4859,-1.94652 3.302,-4.19443 1.8161,-2.24791 3.302,-4.13509 3.302,-4.19373 0,-0.0586 -1.411075,-1.85404 -3.135721,-3.98978 -1.725847,-2.13722 -3.103308,-3.91557 -3.06363,-3.95525 0.03965,-0.0396 1.192961,-0.062 2.562913,-0.0496 l 2.490822,0.0225 2.01971,2.49767 c 1.110841,1.37371 2.051451,2.50938 2.090245,2.5237 0.03879,0.0143 0.992863,-1.11916 2.120154,-2.51883 l 2.049621,-2.54487 h 2.528943 c 1.967407,0 2.528653,0.0235 2.527636,0.10583 -6.78e-4,0.0582 -1.356927,1.78223 -3.013795,3.83117 -1.656868,2.04893 -3.071001,3.81203 -3.142518,3.918 -0.115431,0.17103 -0.115831,0.20907 -0.0036,0.33867 0.611301,0.70573 6.584523,8.16526 6.584523,8.22293 0,0.0414 -0.06027,0.0984 -0.133925,0.12667 -0.151019,0.058 -2.435346,0.0412 -3.971304,-0.0291 z m 31.757954,-0.13807 c -0.02827,-0.0737 -0.05139,-3.72853 -0.05139,-8.12195 0,-7.14895 0.01398,-8.002 0.133045,-8.12108 0.113148,-0.11315 0.420878,-0.13304 2.0574,-0.13304 1.383834,0 1.952896,0.0285 2.025955,0.1016 0.07759,0.0776 0.1016,1.99659 0.1016,8.12107 0,4.41071 -0.02312,8.07974 -0.05139,8.1534 -0.04491,0.11704 -0.31071,0.13393 -2.107607,0.13393 -1.796898,0 -2.0627,-0.0169 -2.107608,-0.13393 z m 26.675056,0.0775 c -0.0823,-0.0823 -0.0693,-16.35094 0.0131,-16.40188 0.10656,-0.0658 3.69437,-0.72901 3.9441,-0.72901 0.21648,0 0.21967,0.009 0.21967,0.62089 0,0.34149 0.0206,0.64148 0.0457,0.66664 0.0252,0.0251 0.30139,-0.0804 0.61383,-0.23464 2.06671,-1.02006 6.11382,-0.94157 8.18355,0.15872 1.02296,0.54381 1.87126,1.54518 2.29281,2.70655 0.44017,1.21265 0.47179,1.76091 0.44542,7.72351 l -0.0244,5.50333 -2.02603,0.0227 c -1.56438,0.0176 -2.04156,-0.002 -2.0942,-0.0847 -0.0375,-0.0591 -0.0688,-2.51321 -0.0695,-5.45365 -0.001,-5.1254 -0.008,-5.36915 -0.17258,-5.90081 -0.21433,-0.69391 -0.81633,-1.39046 -1.46361,-1.69349 -1.2244,-0.57319 -3.09122,-0.5195 -4.2978,0.12359 -0.59121,0.31511 -0.86573,0.61032 -1.17167,1.25996 l -0.2193,0.46567 -0.0251,5.6515 -0.0251,5.6515 h -2.05632 c -1.13096,0 -2.08171,-0.0254 -2.11275,-0.0565 z M 93.696474,146.67598 c -0.08005,-0.20862 -0.05783,-2.43415 0.02562,-2.56592 0.04719,-0.0745 0.809786,-0.25531 2.084672,-0.49418 1.634735,-0.3063 2.023651,-0.35552 2.081987,-0.26349 0.08131,0.12827 0.101938,3.11771 0.02294,3.32359 -0.04491,0.11703 -0.31071,0.13392 -2.107607,0.13392 -1.796898,0 -2.0627,-0.0169 -2.107608,-0.13392 z M 8.5825331,127.87526 C 8.0993532,127.70405 7.493233,127.1499 7.2175744,126.62734 L 6.9887483,126.19357 V 103.7569 81.320233 L 7.224976,80.839191 c 0.4447099,-0.905588 1.210017,-1.371261 2.2619275,-1.376333 0.5283645,-0.0025 0.7173275,0.03698 1.1209795,0.234465 0.267798,0.131021 0.621732,0.396273 0.789328,0.591553 0.167111,0.194713 4.276512,7.472427 9.132003,16.172698 4.85549,8.700276 8.862523,15.814456 8.904516,15.809306 0.04199,-0.005 4.080374,-7.15391 8.974179,-15.886115 5.996612,-10.699987 9.002735,-15.984173 9.219574,-16.206236 0.463218,-0.474379 1.051681,-0.70933 1.779265,-0.710392 0.977425,-0.0014 1.774178,0.47652 2.227938,1.336474 l 0.227396,0.430955 0.02179,22.307004 c 0.02431,24.8771 0.07465,22.82746 -0.57886,23.56988 -0.539988,0.61346 -0.992196,0.8389 -1.773488,0.88413 -0.567974,0.0329 -0.718452,0.01 -1.110555,-0.17046 -0.645095,-0.29653 -0.956736,-0.59097 -1.252979,-1.1838 l -0.258913,-0.51813 v -17.26554 c 0,-11.219494 -0.02901,-17.255645 -0.08284,-17.237306 -0.04556,0.01552 -3.495772,6.086122 -7.667133,13.490226 -6.717671,11.92376 -7.635225,13.51076 -8.030044,13.88875 -1.010264,0.96722 -2.548656,0.9495 -3.518977,-0.0405 -0.295754,-0.30176 -1.423449,-2.24384 -4.823204,-8.30637 -2.44046,-4.35189 -5.85041,-10.42713 -7.577667,-13.50053 l -3.140467,-5.588 -0.04233,17.22967 c -0.04017,16.34781 -0.05015,17.24974 -0.195096,17.62196 -0.221585,0.56904 -0.666033,1.04107 -1.259405,1.33758 -0.430044,0.2149 -0.6162967,0.25864 -1.0778553,0.25311 -0.3068879,-0.004 -0.7170742,-0.0631 -0.9115256,-0.13196 z m 60.9924499,0.01 c -4.181788,-0.50598 -7.233579,-2.11245 -8.943402,-4.70785 -0.92568,-1.40511 -1.347932,-2.81375 -1.421125,-4.7409 -0.09494,-2.49974 0.488149,-4.40497 1.880865,-6.14565 1.420004,-1.77478 3.597326,-3.01983 6.476427,-3.70339 1.995357,-0.47374 2.328791,-0.49305 9.176123,-0.53146 l 6.339789,-0.0356 -0.0444,-1.5813 c -0.03398,-1.21014 -0.08462,-1.73221 -0.215765,-2.22421 -0.662127,-2.48401 -2.299902,-4.13562 -4.926414,-4.968041 -1.290227,-0.408914 -1.898794,-0.485572 -3.81,-0.479925 -2.483519,0.0073 -3.837923,0.289376 -5.503334,1.14601 -0.997085,0.512866 -1.689633,1.030906 -2.872015,2.148316 -1.033665,0.97687 -1.367633,1.14555 -2.26812,1.14555 -0.590896,0 -0.968111,-0.12557 -1.425694,-0.47458 -0.628664,-0.47951 -0.935837,-1.42078 -0.721931,-2.21222 0.129854,-0.48046 0.943248,-1.542343 1.809546,-2.362366 2.036292,-1.927521 4.751664,-3.140526 8.149448,-3.640503 1.404577,-0.206681 4.511395,-0.207026 5.91345,-6.77e-4 5.298956,0.779953 8.823088,3.463668 10.196144,7.764626 0.592023,1.85447 0.565506,1.24331 0.565506,13.03303 v 10.62567 l -0.249682,0.45072 c -0.594504,1.07322 -1.879423,1.54736 -3.027977,1.11733 -0.595029,-0.22279 -0.992276,-0.56412 -1.297186,-1.11462 -0.241368,-0.43576 -0.252281,-0.50212 -0.280086,-1.70227 -0.01592,-0.68685 -0.05532,-1.24883 -0.08758,-1.24883 -0.03226,0 -0.120709,0.10478 -0.196571,0.23283 -0.239073,0.40361 -1.184647,1.32921 -1.891343,1.85139 -1.638876,1.21097 -3.847711,2.04249 -6.268712,2.35985 -1.188372,0.15579 -3.764398,0.15528 -5.055963,-9.9e-4 z m 5.247225,-4.23565 c 3.813455,-0.56625 6.699284,-2.69285 7.747009,-5.70886 0.359893,-1.036 0.422199,-1.5245 0.467292,-3.66374 l 0.04417,-2.0955 h -5.930003 c -6.069728,0 -6.621043,0.024 -8.006291,0.3481 -2.532406,0.59254 -4.14714,1.96559 -4.681072,3.98043 -0.190545,0.71904 -0.192109,2.21748 -0.0031,2.93034 0.615545,2.32107 2.633121,3.76855 5.866355,4.20873 1.180388,0.1607 3.415013,0.16095 4.495596,5.1e-4 z m 25.825442,4.23565 c -4.124054,-0.49899 -7.21868,-2.11285 -8.901692,-4.64226 -0.555465,-0.83481 -0.921191,-1.66562 -1.214916,-2.75987 -0.197443,-0.73556 -0.217221,-0.95778 -0.218914,-2.45962 -0.0017,-1.51679 0.01604,-1.7172 0.218516,-2.4654 1.095214,-4.04721 4.456227,-6.51557 9.972436,-7.32387 0.8249,-0.12087 1.9422,-0.1481 7.31241,-0.17823 l 6.33874,-0.0356 -0.0427,-1.62363 c -0.0498,-1.8932 -0.13936,-2.32649 -0.73909,-3.57376 -1.34166,-2.7903 -4.43181,-4.235641 -8.72072,-4.078896 -3.36029,0.122808 -5.507052,1.02504 -7.790867,3.274316 -0.968807,0.95416 -1.270119,1.11921 -2.137724,1.17102 -0.825119,0.0493 -1.27353,-0.1068 -1.789641,-0.62292 -0.596452,-0.59645 -0.785064,-1.39142 -0.513047,-2.16241 0.435475,-1.234254 2.699385,-3.305472 4.727677,-4.325277 2.367399,-1.190307 4.842802,-1.710592 8.138602,-1.710592 2.16979,0 3.29719,0.124254 4.90168,0.540229 4.45016,1.153732 7.38797,3.939074 8.43025,7.99272 0.42357,1.64732 0.43725,2.08035 0.40964,12.96326 l -0.0256,10.07534 -0.25116,0.45343 c -0.30491,0.5505 -0.70215,0.89183 -1.29718,1.11462 -0.81973,0.30691 -1.80075,0.14274 -2.47617,-0.4144 -0.16455,-0.13573 -0.41193,-0.45083 -0.54973,-0.70022 -0.23841,-0.43148 -0.25262,-0.51469 -0.29349,-1.71858 l -0.0429,-1.26514 -0.46567,0.57468 c -1.64668,2.03218 -4.54391,3.45908 -7.9228,3.90202 -1.18837,0.15578 -3.7644,0.15527 -5.05596,-10e-4 z m 5.48991,-4.27446 c 3.08347,-0.52714 5.56295,-2.06457 6.88915,-4.27168 0.40629,-0.67617 0.82633,-1.84096 0.97845,-2.71328 0.0894,-0.51276 0.12925,-1.31317 0.12925,-2.5972 v -1.85604 l -6.32883,0.0311 c -6.15913,0.0303 -6.35096,0.0362 -7.15382,0.21775 -1.821768,0.41208 -2.847691,0.91799 -3.791072,1.86948 -0.734788,0.74111 -1.03533,1.25539 -1.270127,2.17343 -0.335593,1.31219 -0.165854,3.06138 0.400448,4.12658 0.128126,0.241 0.519481,0.72593 0.869679,1.07762 0.972354,0.97648 2.280242,1.58404 4.065722,1.88869 1.14673,0.19566 1.16249,0.19687 2.76442,0.21086 1.11374,0.01 1.68385,-0.0269 2.44673,-0.15736 z m 20.58662,4.28621 c -0.74991,-0.27932 -1.3935,-0.95671 -1.58512,-1.66835 -0.0551,-0.20473 -0.0768,-5.44721 -0.0624,-15.07568 0.0214,-14.283237 0.0273,-14.771407 0.18187,-15.058134 0.31133,-0.577448 0.65295,-0.922307 1.16921,-1.18028 1.26859,-0.633927 2.80414,-0.101186 3.40198,1.18028 0.15308,0.328128 0.18376,0.592033 0.22107,1.901692 l 0.0433,1.520692 0.37934,-0.589359 c 0.48408,-0.752096 1.72831,-1.996547 2.52243,-2.522898 1.68055,-1.113878 3.60177,-1.770474 5.84904,-1.998974 1.84094,-0.187186 2.40929,-0.07377 3.10211,0.619056 0.54217,0.542173 0.7649,1.119006 0.69471,1.799147 -0.0881,0.853491 -0.70095,1.656958 -1.46982,1.926928 -0.17883,0.06279 -0.76329,0.140383 -1.29881,0.172422 -2.39181,0.143097 -4.02713,0.617831 -5.54486,1.609668 -2.18412,1.42732 -3.44033,3.47749 -4.0765,6.65296 -0.12845,0.64115 -0.14953,1.71726 -0.19324,9.86367 l -0.0491,9.144 -0.1919,0.38945 c -0.23405,0.475 -0.70864,0.96445 -1.16277,1.1992 -0.43472,0.22472 -1.46986,0.28611 -1.93057,0.11451 z m 31.0559,0.0231 c -3.63701,-0.43493 -6.40411,-1.67626 -8.55237,-3.83663 -2.24417,-2.25682 -3.48596,-5.08158 -4.07839,-9.2773 -0.21275,-1.50676 -0.21306,-5.77074 -8.4e-4,-7.28133 1.05514,-7.49955 4.8378,-11.732972 11.49378,-12.86344 1.43714,-0.244086 4.04587,-0.372869 5.251,-0.259222 2.7254,0.257014 5.16969,1.073913 7.17072,2.396501 1.33747,0.884012 2.57526,2.069284 2.97852,2.852157 0.58626,1.138144 -0.0463,2.557644 -1.30248,2.922824 -1.08119,0.31431 -1.72317,0.0546 -3.08054,-1.2462 -1.19497,-1.14517 -2.05759,-1.687936 -3.38171,-2.127796 -1.30906,-0.434853 -2.33837,-0.585508 -4.00033,-0.585508 -3.14286,0 -5.38418,0.779537 -7.11906,2.476014 -1.65723,1.62055 -2.6005,3.81661 -3.05482,7.112 -0.16805,1.21895 -0.14145,4.9423 0.0445,6.223 0.79434,5.47195 3.21713,8.3218 7.78958,9.16258 1.09081,0.20058 3.52494,0.19498 4.66816,-0.0108 1.82263,-0.32798 3.64452,-1.08419 5.39549,-2.23947 1.41059,-0.9307 1.53254,-0.98338 2.26684,-0.97926 0.48005,0.003 0.72042,0.048 0.98506,0.1858 1.00019,0.52068 1.4293,1.51933 1.11375,2.59194 -0.14358,0.48806 -0.83824,1.1551 -2.01414,1.93409 -2.11283,1.39965 -4.27565,2.26204 -6.858,2.73453 -0.94635,0.17316 -4.61312,0.24724 -5.715,0.11547 z m 19.91343,-0.0231 c -0.72336,-0.26944 -1.29204,-0.83999 -1.54551,-1.55059 -0.0956,-0.26793 -0.11544,-4.2628 -0.11853,-23.82299 -0.004,-26.710406 -0.0881,-23.967011 0.75887,-24.814891 0.70639,-0.707128 1.53553,-0.911635 2.51581,-0.620522 0.53894,0.160046 1.2081,0.745308 1.47745,1.292198 l 0.19715,0.400298 0.0423,9.984084 0.0423,9.984084 0.36156,-0.478894 c 1.38303,-1.831898 3.67851,-3.184789 6.41178,-3.778929 2.79087,-0.606659 6.90891,-0.333368 9.72889,0.645655 3.76514,1.307153 6.10718,4.004212 6.89774,7.943337 0.33414,1.66492 0.34903,2.20429 0.34903,12.63896 0,11.63771 0.0597,10.7252 -0.75522,11.54014 -0.37177,0.37177 -0.59277,0.51783 -0.93918,0.6207 -0.95544,0.28374 -1.77222,0.1045 -2.48267,-0.54481 -0.84576,-0.77297 -0.76925,0.28422 -0.82385,-11.38566 -0.0345,-7.3783 -0.0763,-10.41049 -0.14944,-10.83733 -0.20721,-1.20985 -0.46149,-2.0556 -0.87825,-2.921 -0.37133,-0.77109 -0.52492,-0.9858 -1.15792,-1.6188 -0.633,-0.633006 -0.84771,-0.786592 -1.6188,-1.157926 -0.90615,-0.436378 -1.82747,-0.705805 -2.96333,-0.866581 -0.8473,-0.119932 -3.35107,-0.118064 -4.24007,0.0032 -4.37331,0.596354 -6.80055,2.879717 -7.58912,7.139277 -0.12811,0.69195 -0.14877,1.85079 -0.18979,10.64019 -0.0459,9.82729 -0.0467,9.8651 -0.22574,10.25224 -0.2188,0.47305 -0.67627,0.94444 -1.15603,1.19122 -0.45412,0.23359 -1.47939,0.29847 -1.94949,0.12337 z"
         style="fill:#9e9daa;stroke-width:0.08466667" />
      <path
         id="path838"
         d="m 168.40575,168.0524 c -0.23781,-0.0628 -1.523,-1.31117 -6.50752,-6.32119 -3.41614,-3.43364 -6.28303,-6.35728 -6.37085,-6.49698 -0.17683,-0.28131 -0.20962,-0.82986 -0.0718,-1.20098 0.10001,-0.26925 12.4411,-12.66952 12.79776,-12.85914 0.30343,-0.16131 0.86245,-0.15413 1.22029,0.0157 0.16824,0.0798 4.73757,4.61204 10.9261,10.83733 5.8503,5.88506 10.69813,10.70011 10.77295,10.70011 0.14461,0 8.30571,-8.11191 8.30571,-8.25565 0,-0.11071 -8.06032,-8.16968 -8.17105,-8.16968 -0.0466,0 -1.66553,1.58115 -3.59762,3.51367 -1.9321,1.93251 -3.55273,3.51366 -3.6014,3.51366 -0.13426,0 -2.7486,-2.66144 -2.7486,-2.79812 0,-0.19899 8.9701,-9.12124 9.36123,-9.31128 0.43733,-0.2125 0.73902,-0.21129 1.1853,0.005 0.50716,0.24551 12.62105,12.48969 12.69692,12.83348 0.0297,0.13466 0.067,0.28799 0.0828,0.34073 0.0158,0.0527 -0.0122,0.25716 -0.0622,0.4543 -0.0813,0.32044 -0.75109,1.02223 -6.31869,6.62083 -3.42523,3.44432 -6.34074,6.32084 -6.4789,6.3923 -0.36169,0.18703 -1.0005,0.16627 -1.33902,-0.0435 -0.15389,-0.0954 -5.05713,-4.97853 -10.89609,-10.85144 -6.74113,-6.78035 -10.66618,-10.66873 -10.75295,-10.65253 -0.1843,0.0344 -8.22175,8.13899 -8.22175,8.29042 0,0.0657 1.84823,1.96621 4.10717,4.22339 l 4.10717,4.10393 3.53437,-3.53362 c 1.9439,-1.94349 3.56961,-3.53361 3.61268,-3.53361 0.13606,0 2.75727,2.65385 2.75727,2.7916 0,0.0723 -2.06692,2.19479 -4.59316,4.71659 -5.09831,5.08935 -4.87033,4.90354 -5.73617,4.67498 z m -95.461668,-2.14987 c -2.007117,-0.35389 -3.61028,-1.09957 -4.814765,-2.23949 -0.987213,-0.93431 -1.735743,-2.25201 -2.142786,-3.77214 -0.207596,-0.77529 -0.227231,-0.98585 -0.232912,-2.49767 -0.0055,-1.47504 0.01472,-1.7277 0.190105,-2.37066 0.703537,-2.57916 2.406912,-4.67097 4.621165,-5.67496 2.736875,-1.24095 6.435852,-1.05057 8.692642,0.44741 1.057529,0.70194 2.048425,1.93142 2.588277,3.21147 0.596621,1.41464 0.813664,2.6523 0.776698,4.42908 l -0.02642,1.27 -6.265334,0.0423 -6.265333,0.0423 -0.02572,0.26432 c -0.03177,0.32652 0.25483,1.19889 0.544771,1.65819 0.526381,0.83384 1.443465,1.45293 2.629366,1.77499 0.88911,0.24145 2.89372,0.25927 4.132918,0.0367 1.04107,-0.18696 2.518317,-0.65341 3.278717,-1.03529 0.313165,-0.15727 0.58939,-0.28595 0.613833,-0.28595 0.02445,0 0.04445,0.76152 0.04445,1.69227 v 1.69228 l -0.5715,0.2863 c -0.738818,0.37014 -1.731729,0.70985 -2.688166,0.91971 -1.015196,0.22276 -4.063315,0.28801 -5.08,0.10874 z m 5.750086,-10.05986 c 0.144399,-0.10559 0.145059,-0.13876 0.01305,-0.65408 -0.183143,-0.71489 -0.478867,-1.20609 -1.071262,-1.77943 -0.921876,-0.8922 -2.105982,-1.31699 -3.464357,-1.24282 -1.807142,0.0987 -3.215462,0.91223 -3.860148,2.22993 -0.261307,0.5341 -0.371374,1.36846 -0.195233,1.47998 0.06519,0.0413 1.987677,0.0756 4.272187,0.0764 3.298393,0.001 4.184972,-0.0216 4.305766,-0.10994 z m 64.668192,10.09569 c -0.83328,-0.0805 -1.45643,-0.19964 -2.26161,-0.43239 -0.74412,-0.2151 -1.82886,-0.70688 -1.9685,-0.89246 -0.12349,-0.1641 -0.15443,-3.37025 -0.0332,-3.44515 0.0399,-0.0247 0.3733,0.10203 0.74083,0.28157 0.75729,0.36993 1.95457,0.76934 2.95424,0.98553 0.84443,0.18261 2.96987,0.21196 3.76836,0.052 1.08597,-0.2175 1.69264,-0.70815 1.69264,-1.36891 0,-0.8219 -0.79703,-1.29642 -3.25967,-1.9407 -1.98175,-0.51847 -2.77956,-0.78302 -3.59833,-1.1932 -1.94716,-0.97548 -2.794,-2.25819 -2.794,-4.2321 0,-1.37725 0.38893,-2.34976 1.30585,-3.26519 0.68444,-0.68334 1.24936,-1.03077 2.18738,-1.34526 2.24682,-0.75328 5.57056,-0.54996 7.73615,0.47324 0.28662,0.13541 0.62045,0.32435 0.74187,0.41985 l 0.22075,0.17365 v 1.64485 c 0,0.90468 -0.0327,1.64486 -0.0727,1.64486 -0.04,0 -0.35433,-0.12899 -0.6985,-0.28665 -1.51802,-0.69538 -3.14797,-1.07663 -4.68976,-1.09696 -1.15701,-0.0153 -1.70918,0.0951 -2.2768,0.45509 -0.41375,0.26239 -0.72908,0.76358 -0.72855,1.15798 8.4e-4,0.38011 0.293,0.76071 0.77063,1.00273 0.24111,0.12219 1.37596,0.46294 2.52189,0.75725 1.14593,0.2943 2.34315,0.63305 2.66052,0.75278 2.70975,1.02226 3.93664,2.77517 3.61035,5.15824 -0.11614,0.84828 -0.33047,1.39332 -0.81483,2.07209 -1.3111,1.83735 -4.30956,2.79626 -7.71493,2.46724 z m -36.80561,-0.11318 c -1.57598,-0.30527 -2.77415,-0.93242 -3.96642,-2.07614 -1.04442,-1.00188 -1.86176,-2.43163 -2.2697,-3.97029 -0.22364,-0.84355 -0.30834,-2.87145 -0.15889,-3.80426 0.57365,-3.58061 3.20419,-6.34201 6.55666,-6.88281 0.91582,-0.14774 3.03556,-0.0588 3.86002,0.16201 0.8668,0.23213 1.48551,0.45428 2.0213,0.72579 0.58263,0.29524 0.68803,0.25133 0.68803,-0.28665 0,-0.37003 0.0244,-0.43025 0.1905,-0.4703 0.56837,-0.13705 3.75612,-0.68863 3.81,-0.65926 0.0349,0.019 0.0635,3.86143 0.0635,8.53863 v 8.504 h -2.032 -2.032 l -0.001,-0.48683 c -0.002,-0.71767 -0.0697,-0.77428 -0.53995,-0.45075 -0.58463,0.40223 -1.53349,0.8279 -2.29509,1.02961 -0.87086,0.23065 -3.00146,0.30026 -3.89467,0.12725 z m 3.46177,-3.65708 c 1.17239,-0.28376 2.42651,-1.29784 3.03104,-2.45091 0.32752,-0.62472 0.57783,-1.62493 0.57538,-2.29922 -0.004,-1.21546 -0.54521,-2.5066 -1.42186,-3.39457 -0.69987,-0.70891 -1.31818,-1.06956 -2.22822,-1.29968 -2.78553,-0.70441 -5.39156,1.00743 -5.88563,3.86614 -0.29402,1.70122 0.20374,3.24152 1.4255,4.41109 1.28195,1.22719 2.71803,1.59935 4.50379,1.16715 z m -20.225772,3.51691 c -0.876325,-0.12656 -1.893392,-0.50416 -2.561395,-0.95096 -0.724857,-0.48481 -1.200226,-1.04386 -1.600488,-1.88225 -0.547031,-1.14576 -0.534026,-0.89675 -0.535643,-10.25769 -0.0014,-8.00602 0.0069,-8.48456 0.146693,-8.52539 0.209652,-0.0612 3.397623,-0.63101 3.704167,-0.66208 l 0.254,-0.0257 0.04233,8.59367 0.04233,8.59366 0.188587,0.35271 c 0.242993,0.45446 0.579899,0.68929 1.165022,0.81202 l 0.469756,0.0985 -0.02268,1.9507 -0.02268,1.9507 -0.381,0.0127 c -0.20955,0.007 -0.6096,-0.0203 -0.889,-0.0606 z m -42.92001,-0.0694 c -0.02635,-0.0426 1.455945,-1.93868 3.293988,-4.21344 1.838043,-2.27476 3.3429,-4.16374 3.344126,-4.19773 0.0021,-0.0584 -0.521013,-0.7145 -4.606073,-5.7771 -1.319108,-1.63476 -1.660905,-2.10777 -1.566333,-2.16762 0.138803,-0.0878 4.62148,-0.0968 4.832004,-0.01 0.07647,0.0316 1.041698,1.17415 2.144953,2.53888 1.140273,1.41053 2.055579,2.47012 2.120997,2.45534 0.06329,-0.0143 1.02272,-1.14996 2.132059,-2.52367 l 2.016979,-2.49767 2.448431,-0.0225 c 1.346637,-0.0124 2.479935,0.009 2.518441,0.0475 0.03851,0.0385 -1.340119,1.81689 -3.06361,3.95198 -1.72349,2.13509 -3.133618,3.93397 -3.133618,3.99752 0,0.0635 1.476375,1.94326 3.280833,4.17713 1.804458,2.23387 3.293152,4.11883 3.308208,4.1888 0.02386,0.11088 -0.285793,0.12704 -2.413,0.12591 -1.342206,-8.4e-4 -2.48117,-0.0293 -2.531032,-0.0635 -0.04986,-0.0342 -0.998209,-1.18615 -2.10744,-2.55987 -2.221457,-2.75114 -2.415906,-2.97756 -2.52577,-2.94093 -0.0414,0.0138 -1.074208,1.26218 -2.295125,2.77418 l -2.21985,2.74908 -2.46563,0.0224 c -1.427577,0.013 -2.485801,-0.0102 -2.513538,-0.0551 z m 46.877754,-8.15887 0.02159,-8.14916 h 2.032 2.032 l 0.02159,8.14916 0.02159,8.14917 h -2.07518 -2.07518 z m 26.649258,-0.0197 c 0,-4.49451 0.01,-8.1734 0.0212,-8.17532 0.0116,-0.002 0.89746,-0.16787 1.96849,-0.3688 1.07104,-0.20092 1.97591,-0.3495 2.01084,-0.33018 0.0349,0.0193 0.0641,0.29005 0.0648,0.60163 0.002,0.78829 0.0578,0.84989 0.52439,0.57647 0.91451,-0.53594 2.30891,-0.8133 4.08865,-0.8133 4.03861,0 6.18156,1.42902 6.81109,4.54197 0.16509,0.81634 0.17391,1.14602 0.17391,6.49969 v 5.63974 l -2.01083,-0.0227 -2.01084,-0.0227 -0.0423,-5.54567 -0.0423,-5.54567 -0.26358,-0.55033 c -0.14496,-0.30268 -0.41166,-0.69842 -0.59266,-0.87942 -0.73898,-0.73898 -2.09825,-1.09936 -3.48245,-0.92329 -1.42803,0.18164 -2.34583,0.71119 -2.78589,1.60739 l -0.24142,0.49165 -0.0423,5.67267 -0.0423,5.67267 -2.05317,0.0227 -2.05316,0.0227 z M 93.787686,146.75495 c -0.03187,-0.0319 -0.05794,-0.64334 -0.05794,-1.35882 0,-0.96334 0.02746,-1.31106 0.105834,-1.3401 0.172093,-0.0638 3.713861,-0.71746 3.887317,-0.71746 0.151105,0 0.157878,0.0854 0.136102,1.7145 l -0.02292,1.7145 -1.99523,0.0227 c -1.097373,0.0125 -2.021298,-0.003 -2.053166,-0.0353 z M 8.6988448,127.80698 c -0.7953189,-0.28368 -1.4101504,-0.97774 -1.5815437,-1.78535 -0.061641,-0.29045 -0.08226,-7.26321 -0.066588,-22.51873 L 7.073415,81.404899 7.2682516,80.981566 C 7.6959385,80.052308 8.4368718,79.58622 9.486415,79.58622 c 0.761828,0 1.315579,0.225435 1.79083,0.729059 0.191478,0.202908 3.685928,6.378679 9.179941,16.223787 4.878927,8.742894 8.915821,15.896164 8.970877,15.896164 0.05506,0 4.115583,-7.17001 9.023393,-15.933362 5.645965,-10.081395 9.03316,-16.045119 9.222433,-16.237641 0.44213,-0.449719 0.871014,-0.626203 1.613125,-0.663795 0.835884,-0.04234 1.364318,0.17073 1.899389,0.765858 0.691271,0.76886 0.633345,-1.36658 0.633345,23.34828 0,24.37011 0.04252,22.53197 -0.53884,23.29336 -0.586114,0.76761 -1.639974,1.08755 -2.632199,0.7991 -0.381745,-0.11098 -0.59029,-0.24142 -0.931487,-0.58261 -0.795296,-0.7953 -0.723474,1.04841 -0.723474,-18.57194 0,-13.78425 -0.0215,-17.298753 -0.105833,-17.296815 -0.05821,0.0013 -3.553883,6.1242 -7.768167,13.606355 -5.247247,9.31612 -7.765096,13.7079 -7.98837,13.93378 -0.491139,0.49687 -0.987628,0.69207 -1.748296,0.68736 -0.752136,-0.005 -1.31388,-0.24725 -1.783373,-0.77018 -0.160028,-0.17824 -3.719961,-6.4294 -7.910961,-13.89145 -4.191,-7.462057 -7.6581,-13.554883 -7.704666,-13.539617 -0.0559,0.01833 -0.09905,5.951698 -0.127,17.462037 l -0.04233,17.43428 -0.232236,0.39506 c -0.604093,1.02763 -1.8299279,1.50955 -2.8836672,1.13369 z m 61.7475702,0.063 c -4.985318,-0.3877 -8.608217,-2.36201 -10.223132,-5.57112 -1.055378,-2.09722 -1.239203,-5.1651 -0.446436,-7.45067 1.04607,-3.01584 3.66011,-5.12015 7.573037,-6.09631 2.170853,-0.54156 2.634945,-0.57135 9.552364,-0.61321 l 6.244167,-0.0378 -0.0011,-1.41001 c -0.0013,-1.60279 -0.153797,-2.55437 -0.567148,-3.53816 -0.9959,-2.37032 -3.275169,-3.942349 -6.374409,-4.396487 -1.326837,-0.194424 -3.812218,-0.128994 -5.036355,0.132586 -2.140855,0.45747 -3.697325,1.331321 -5.476989,3.074941 -0.646003,0.63292 -0.91942,0.83999 -1.294343,0.98026 -1.552585,0.5809 -3.044555,-0.32749 -3.045329,-1.85415 -4.23e-4,-0.80492 0.41808,-1.478162 1.7048,-2.742605 2.04756,-2.012112 4.864344,-3.269501 8.378011,-3.739877 1.468958,-0.196649 4.094082,-0.196138 5.574538,0.0011 5.747123,0.76562 9.478171,3.867792 10.544742,8.767402 0.317136,1.45686 0.345186,2.57552 0.318432,12.7 -0.02861,10.82644 0.0148,10.02431 -0.579129,10.70076 -0.454448,0.51759 -1.024331,0.76234 -1.775045,0.76234 -0.750714,0 -1.320597,-0.24475 -1.775045,-0.76234 -0.477808,-0.54419 -0.540571,-0.78881 -0.578697,-2.25526 -0.01907,-0.73343 -0.06017,-1.3335 -0.09135,-1.3335 -0.03117,0 -0.224849,0.23094 -0.430394,0.5132 -1.578161,2.16715 -4.796739,3.73653 -8.487681,4.13858 -0.760569,0.0828 -2.816047,0.0997 -3.707503,0.0303 z m 3.4036,-4.00489 c 2.936418,-0.24333 5.369585,-1.29403 7.028383,-3.035 1.030732,-1.0818 1.625532,-2.14377 2.026946,-3.61898 0.16377,-0.60188 0.183032,-0.89644 0.190466,-2.91325 l 0.0083,-2.24367 -5.969,0.003 c -6.7014,0.003 -7.087269,0.0294 -8.822258,0.60403 -1.182429,0.39159 -1.829232,0.77547 -2.615426,1.55227 -0.765483,0.75633 -1.198329,1.55595 -1.390429,2.56862 -0.492406,2.59573 0.563346,4.86214 2.795113,6.00033 1.227531,0.62604 2.521534,0.95297 4.269926,1.07881 1.304731,0.0939 1.392928,0.0941 2.478007,0.004 z m 27.330395,3.97818 c -4.084002,-0.4184 -7.082709,-1.78454 -8.910603,-4.05949 -1.541958,-1.91907 -2.208919,-4.61261 -1.803764,-7.28459 0.298636,-1.96952 1.068112,-3.49804 2.45176,-4.87031 1.672193,-1.65843 4.059488,-2.72975 7.161517,-3.21381 1.48958,-0.23244 3.28578,-0.29246 8.83562,-0.29522 l 5.32152,-0.003 -0.0389,-1.7145 c -0.0407,-1.79373 -0.10243,-2.17321 -0.52306,-3.21456 -0.33043,-0.81809 -0.7337,-1.42156 -1.40277,-2.0992 -0.74837,-0.75795 -1.38465,-1.191704 -2.37067,-1.616098 -1.38041,-0.594144 -2.70494,-0.834227 -4.61433,-0.83639 -3.65983,-0.0041 -5.935296,0.856566 -8.295582,3.137858 -0.513199,0.49603 -1.103419,0.98816 -1.311597,1.09363 -0.450071,0.22802 -1.25879,0.3109 -1.746276,0.17896 -0.764946,-0.20704 -1.418733,-0.94082 -1.524262,-1.71076 -0.109288,-0.79732 0.240665,-1.440166 1.485062,-2.727994 1.231866,-1.274871 2.435293,-2.091562 4.184277,-2.839631 3.532798,-1.511025 8.778738,-1.762769 12.652888,-0.607191 3.88169,1.157825 6.6564,3.805554 7.67629,7.325006 0.52919,1.82614 0.51053,1.35563 0.51053,12.86987 0,11.63499 0.0433,10.74094 -0.55329,11.42043 -0.45444,0.5176 -1.02433,0.76234 -1.77504,0.76234 -0.75072,0 -1.3206,-0.24474 -1.77505,-0.76234 -0.4778,-0.54419 -0.54057,-0.78881 -0.57869,-2.25526 -0.0191,-0.73342 -0.0637,-1.3335 -0.0992,-1.3335 -0.0355,0 -0.16171,0.14683 -0.28047,0.3263 -0.7159,1.08179 -2.04114,2.14601 -3.6589,2.93825 -2.03968,0.99885 -3.84181,1.39349 -6.56167,1.43689 -0.95462,0.0152 -2.05952,-0.005 -2.45534,-0.046 z m 4.86935,-4.10791 c 4.24821,-0.65684 7.27227,-3.25133 8.01238,-6.8742 0.13539,-0.66274 0.15652,-1.09294 0.13731,-2.79513 l -0.0227,-2.01184 -6.01134,0.005 c -5.14053,0.005 -6.13398,0.0255 -6.858,0.14375 -3.291987,0.53757 -5.222311,1.95521 -5.849293,4.29576 -0.197909,0.7388 -0.200753,2.22088 -0.0057,2.95722 0.695537,2.62537 3.091282,4.12587 7.040303,4.40947 1.1238,0.0807 2.52289,0.0294 3.55701,-0.13052 z m 20.86932,4.11973 c -0.72403,-0.23838 -1.1954,-0.6314 -1.53585,-1.28056 l -0.19982,-0.381 v -14.859 -14.859004 l 0.22945,-0.435004 c 0.4637,-0.87911 1.32653,-1.358658 2.30349,-1.280237 0.89508,0.07185 1.58671,0.533915 1.97124,1.316961 0.22991,0.468181 0.23805,0.531485 0.26626,2.070447 0.016,0.873125 0.0586,1.5875 0.0947,1.5875 0.0361,0 0.21347,-0.25606 0.39424,-0.569023 0.45535,-0.788383 1.83079,-2.168128 2.76374,-2.772406 1.72714,-1.118676 3.60932,-1.71448 6.03957,-1.911823 1.25747,-0.102109 1.78624,-0.02556 2.3256,0.336682 1.3394,0.899554 1.28101,2.815634 -0.11207,3.676905 -0.36301,0.224434 -0.49428,0.251862 -1.52107,0.317832 -2.04609,0.131457 -3.2215,0.392914 -4.5363,1.009048 -2.36034,1.106092 -3.94255,2.952162 -4.801,5.601642 -0.60273,1.86027 -0.5735,1.32491 -0.62762,11.49848 l -0.0489,9.18633 -0.23716,0.48295 c -0.39651,0.80744 -1.09195,1.25993 -2.00651,1.30553 -0.30268,0.0151 -0.64558,-0.004 -0.762,-0.0422 z m 31.53833,0.0228 c -1.80748,-0.17776 -3.62129,-0.57194 -4.8303,-1.04973 -4.85046,-1.91686 -7.55057,-5.83068 -8.39141,-12.16343 -0.20536,-1.54664 -0.20378,-5.48254 0.003,-7.01324 1.03697,-7.683209 4.87614,-11.888061 11.82191,-12.947959 2.22671,-0.339787 4.80649,-0.308846 6.74368,0.08088 3.04932,0.613466 5.87844,2.151293 7.56701,4.113203 0.63157,0.733812 0.76056,1.016309 0.75811,1.660316 -0.004,1.17286 -0.87114,2.00547 -2.07827,1.99654 -0.7788,-0.006 -1.20353,-0.23775 -2.1901,-1.19622 -1.60148,-1.555876 -3.03332,-2.293259 -5.24328,-2.700224 -1.06704,-0.196498 -3.6126,-0.196498 -4.67964,0 -3.97623,0.732226 -6.41278,3.073374 -7.47864,7.185794 -0.45694,1.76298 -0.551,2.66223 -0.55216,5.279 -0.001,2.93666 0.19244,4.44286 0.81133,6.30767 1.16685,3.51588 3.42164,5.50451 7.07229,6.23745 1.05705,0.21222 3.82175,0.21293 4.9,0.001 1.9479,-0.3824 3.66288,-1.11391 5.57583,-2.3783 1.39022,-0.91891 1.88815,-1.04469 2.80617,-0.70891 1.22163,0.44683 1.6898,2.01557 0.91142,3.05392 -0.12875,0.17174 -0.59604,0.57821 -1.03842,0.90326 -2.1543,1.58293 -4.69816,2.66622 -7.366,3.13678 -0.83007,0.14641 -1.46008,0.19192 -2.921,0.21097 -1.02447,0.0134 -2.01507,0.009 -2.20133,-0.009 z m 19.32117,-0.0657 c -0.78008,-0.29084 -1.38659,-0.92979 -1.58618,-1.67103 -0.0538,-0.19968 -0.0755,-8.61269 -0.0614,-23.79264 l 0.0218,-23.483731 0.23974,-0.488233 c 0.3772,-0.768144 1.27934,-1.3321 2.13092,-1.3321 0.85159,0 1.75373,0.563956 2.13093,1.3321 l 0.23974,0.488233 0.0225,10.018436 c 0.0139,6.201021 0.0528,10.007855 0.10206,9.990667 0.0438,-0.01527 0.33841,-0.349707 0.65481,-0.743186 1.54,-1.915181 3.94431,-3.183197 7.00993,-3.696999 0.59972,-0.100513 1.32822,-0.140625 2.49767,-0.137526 2.48829,0.0066 4.51367,0.303639 6.29275,0.922893 4.42962,1.541854 6.73256,4.719247 7.16986,9.892386 0.0628,0.74352 0.0847,4.32865 0.0674,11.049 -0.0256,9.93495 -0.0259,9.94885 -0.20539,10.3369 -0.82972,1.79388 -3.32538,1.88779 -4.29895,0.16176 l -0.26266,-0.46566 -0.046,-10.32934 c -0.0411,-9.22779 -0.0614,-10.41214 -0.18978,-11.10586 -0.69466,-3.75242 -2.58079,-5.624818 -6.31265,-6.266687 -1.23324,-0.212115 -3.89442,-0.190163 -5.1847,0.04277 -3.48404,0.628958 -5.7439,2.510227 -6.71532,5.590297 -0.52119,1.65254 -0.49923,1.17274 -0.55261,12.07815 l -0.0489,9.99067 -0.2501,0.4515 c -0.43421,0.78387 -1.10372,1.20567 -1.99357,1.25598 -0.341,0.0193 -0.67262,-0.0145 -0.87183,-0.0888 z"
         style="fill:#0eaefe;stroke-width:0.08466667" />
      <path
         id="path836"
         d="m 168.40575,168.0524 c -0.23781,-0.0628 -1.523,-1.31117 -6.50752,-6.32119 -3.41614,-3.43364 -6.28303,-6.35728 -6.37085,-6.49698 -0.17683,-0.28131 -0.20962,-0.82986 -0.0718,-1.20098 0.10001,-0.26925 12.4411,-12.66952 12.79776,-12.85914 0.30343,-0.16131 0.86245,-0.15413 1.22029,0.0157 0.16824,0.0798 4.73757,4.61204 10.9261,10.83733 5.8503,5.88506 10.69813,10.70011 10.77295,10.70011 0.14461,0 8.30571,-8.11191 8.30571,-8.25565 0,-0.11071 -8.06032,-8.16968 -8.17105,-8.16968 -0.0466,0 -1.66553,1.58115 -3.59762,3.51367 -1.9321,1.93251 -3.55273,3.51366 -3.6014,3.51366 -0.13426,0 -2.7486,-2.66144 -2.7486,-2.79812 0,-0.19899 8.9701,-9.12124 9.36123,-9.31128 0.43733,-0.2125 0.73902,-0.21129 1.1853,0.005 0.50716,0.24551 12.62105,12.48969 12.69692,12.83348 0.0297,0.13466 0.067,0.28799 0.0828,0.34073 0.0158,0.0527 -0.0122,0.25716 -0.0622,0.4543 -0.0813,0.32044 -0.75109,1.02223 -6.31869,6.62083 -3.42523,3.44432 -6.34074,6.32084 -6.4789,6.3923 -0.36169,0.18703 -1.0005,0.16627 -1.33902,-0.0435 -0.15389,-0.0954 -5.05713,-4.97853 -10.89609,-10.85144 -6.74113,-6.78035 -10.66618,-10.66873 -10.75295,-10.65253 -0.1843,0.0344 -8.22175,8.13899 -8.22175,8.29042 0,0.0657 1.84823,1.96621 4.10717,4.22339 l 4.10717,4.10393 3.53437,-3.53362 c 1.9439,-1.94349 3.56961,-3.53361 3.61268,-3.53361 0.13606,0 2.75727,2.65385 2.75727,2.7916 0,0.0723 -2.06692,2.19479 -4.59316,4.71659 -5.09831,5.08935 -4.87033,4.90354 -5.73617,4.67498 z m -25.11937,-2.12024 c -1.48035,-0.14097 -3.82892,-0.88647 -4.15413,-1.31865 -0.1182,-0.15706 -0.15705,-3.36863 -0.0416,-3.43997 0.0353,-0.0218 0.36869,0.1053 0.74084,0.28252 0.8783,0.41824 2.03816,0.80246 2.97622,0.9859 0.91596,0.17911 2.95891,0.20358 3.75475,0.045 1.08512,-0.21625 1.69264,-0.70738 1.69264,-1.36836 0,-0.82136 -0.79625,-1.29567 -3.25967,-1.94172 -1.92832,-0.50572 -2.84785,-0.81172 -3.6407,-1.21156 -1.80042,-0.90796 -2.64443,-2.11927 -2.72885,-3.91639 -0.0731,-1.55661 0.30475,-2.57922 1.3297,-3.59833 1.28437,-1.27708 3.23877,-1.87095 5.75952,-1.75011 1.98084,0.095 3.98187,0.64461 4.85925,1.33475 l 0.22075,0.17365 v 1.64485 c 0,0.90468 -0.0327,1.64486 -0.0727,1.64486 -0.04,0 -0.35433,-0.12899 -0.6985,-0.28665 -1.83498,-0.84056 -4.27195,-1.29811 -5.70576,-1.07126 -1.18825,0.188 -1.89427,0.72946 -1.96843,1.50965 -0.0789,0.83028 0.40296,1.10096 3.2716,1.8377 1.14593,0.2943 2.34315,0.63305 2.66052,0.75278 2.70975,1.02226 3.93664,2.77517 3.61035,5.15824 -0.11614,0.84828 -0.33047,1.39332 -0.81483,2.07209 -0.96682,1.35488 -2.86089,2.24883 -5.23521,2.47087 -1.04709,0.0979 -1.43993,0.0964 -2.5557,-0.01 z m -36.89896,-0.2129 c -2.89497,-0.61953 -5.17774,-2.88631 -5.97745,-5.93556 -0.22369,-0.85298 -0.30801,-2.77384 -0.16477,-3.75357 0.39537,-2.70393 2.02351,-5.00616 4.36422,-6.17109 1.20155,-0.59801 2.06539,-0.79005 3.556,-0.79053 0.76973,0 1.44582,0.0501 1.92827,0.14363 0.86317,0.16732 2.06645,0.57156 2.57414,0.86479 0.54482,0.31467 0.61992,0.28361 0.61992,-0.25637 0,-0.25336 0.0286,-0.47829 0.0635,-0.49982 0.0695,-0.0429 3.74433,-0.73284 3.90317,-0.73284 0.0739,0 0.0928,2.09675 0.0766,8.48783 l -0.0216,8.48784 h -1.98967 -1.98967 l -0.025,-0.5715 c -0.0174,-0.39839 -0.0583,-0.5715 -0.13466,-0.5715 -0.0603,0 -0.4275,0.19106 -0.81603,0.42457 -0.74491,0.4477 -1.67042,0.78339 -2.55609,0.92712 -0.77786,0.12623 -2.71394,0.0962 -3.41085,-0.053 z m 3.97933,-3.57712 c 1.30584,-0.46726 2.54104,-1.70085 3.02052,-3.01655 0.22556,-0.61897 0.3066,-2.05791 0.15659,-2.78052 -0.0552,-0.26583 -0.25311,-0.78853 -0.43982,-1.16158 -1.21203,-2.42156 -4.21331,-3.39344 -6.60243,-2.13799 -1.13064,0.59413 -2.07143,1.78684 -2.39779,3.03983 -0.17495,0.67166 -0.17112,2.15266 0.007,2.75304 0.49853,1.67928 1.85461,3.0299 3.44894,3.43503 0.65836,0.16729 2.1701,0.0966 2.80688,-0.13126 z m -20.828002,3.33649 c -2.234285,-0.4222 -3.67814,-1.75677 -4.139751,-3.82644 -0.119769,-0.53701 -0.135915,-1.60822 -0.135915,-9.01948 v -8.41011 l 1.756833,-0.32135 c 0.966258,-0.17675 1.82245,-0.33979 1.902655,-0.36232 0.137168,-0.0385 0.14721,0.46265 0.169333,8.45184 0.02205,7.96332 0.033,8.51384 0.175717,8.83031 0.276064,0.61215 0.691845,0.93267 1.357097,1.04614 l 0.353365,0.0603 0.02282,1.83921 0.02282,1.8392 -0.446151,-0.008 c -0.245381,-0.004 -0.712851,-0.058 -1.038818,-0.11963 z m 30.917452,0.0708 c -0.0823,-0.0823 -0.0693,-16.18161 0.0131,-16.23254 0.0842,-0.052 3.66818,-0.72901 3.85943,-0.72901 0.11147,0 0.13501,0.10984 0.13501,0.63001 0,0.34649 0.0379,0.65345 0.0843,0.68212 0.0464,0.0287 0.36071,-0.083 0.6985,-0.24814 1.29277,-0.63202 3.29191,-0.8731 5.31638,-0.64109 3.21112,0.368 4.90246,1.86509 5.371,4.75417 0.10538,0.64973 0.1285,1.7842 0.12878,6.31796 v 5.52604 l -2.01083,-0.0227 -2.01083,-0.0227 -0.0423,-5.54567 -0.0423,-5.54567 -0.19695,-0.4878 c -0.22672,-0.56156 -0.82842,-1.22588 -1.35246,-1.49323 -1.1919,-0.60806 -3.41214,-0.55094 -4.55209,0.11711 -0.4755,0.27867 -1.00374,0.89016 -1.19366,1.38179 -0.14177,0.36696 -0.15547,0.82801 -0.17857,6.00663 l -0.025,5.60917 h -1.97268 c -1.08497,0 -1.99808,-0.0254 -2.02912,-0.0564 z M 93.853421,165.4154 c -0.02219,-0.0582 -0.03052,-3.68723 -0.01851,-8.0645 l 0.02183,-7.95867 h 1.947334 1.947333 l 0.02159,8.0645 0.0216,8.0645 h -1.950415 c -1.482378,0 -1.960101,-0.0254 -1.990767,-0.10583 z m 1.080575,-18.7521 -1.124077,-0.0277 0.02341,-1.24442 0.02342,-1.24441 1.651,-0.31753 c 0.90805,-0.17463 1.794714,-0.34243 1.970371,-0.3729 l 0.319363,-0.0554 -0.02303,1.64096 -0.02304,1.64095 -0.846667,0.004 c -0.465666,0.002 -1.352507,-0.008 -1.970752,-0.0236 z M 8.6988448,127.80698 c -0.7953189,-0.28368 -1.4101504,-0.97774 -1.5815437,-1.78535 -0.061641,-0.29045 -0.08226,-7.26321 -0.066588,-22.51873 L 7.073415,81.404899 7.2682516,80.981566 C 7.6959385,80.052308 8.4368718,79.58622 9.486415,79.58622 c 0.761828,0 1.315579,0.225435 1.79083,0.729059 0.191478,0.202908 3.685928,6.378679 9.179941,16.223787 4.878927,8.742894 8.915821,15.896164 8.970877,15.896164 0.05506,0 4.115583,-7.17001 9.023393,-15.933362 5.645965,-10.081395 9.03316,-16.045119 9.222433,-16.237641 0.44213,-0.449719 0.871014,-0.626203 1.613125,-0.663795 0.835884,-0.04234 1.364318,0.17073 1.899389,0.765858 0.691271,0.76886 0.633345,-1.36658 0.633345,23.34828 0,24.37011 0.04252,22.53197 -0.53884,23.29336 -0.586114,0.76761 -1.639974,1.08755 -2.632199,0.7991 -0.381745,-0.11098 -0.59029,-0.24142 -0.931487,-0.58261 -0.795296,-0.7953 -0.723474,1.04841 -0.723474,-18.57194 0,-13.78425 -0.0215,-17.298753 -0.105833,-17.296815 -0.05821,0.0013 -3.553883,6.1242 -7.768167,13.606355 -5.247247,9.31612 -7.765096,13.7079 -7.98837,13.93378 -0.491139,0.49687 -0.987628,0.69207 -1.748296,0.68736 -0.752136,-0.005 -1.31388,-0.24725 -1.783373,-0.77018 -0.160028,-0.17824 -3.719961,-6.4294 -7.910961,-13.89145 -4.191,-7.462057 -7.6581,-13.554883 -7.704666,-13.539617 -0.0559,0.01833 -0.09905,5.951698 -0.127,17.462037 l -0.04233,17.43428 -0.232236,0.39506 c -0.604093,1.02763 -1.8299279,1.50955 -2.8836672,1.13369 z m 61.7475702,0.063 c -4.985318,-0.3877 -8.608217,-2.36201 -10.223132,-5.57112 -1.055378,-2.09722 -1.239203,-5.1651 -0.446436,-7.45067 1.04607,-3.01584 3.66011,-5.12015 7.573037,-6.09631 2.170853,-0.54156 2.634945,-0.57135 9.552364,-0.61321 l 6.244167,-0.0378 -0.0011,-1.41001 c -0.0013,-1.60279 -0.153797,-2.55437 -0.567148,-3.53816 -0.9959,-2.37032 -3.275169,-3.942349 -6.374409,-4.396487 -1.326837,-0.194424 -3.812218,-0.128994 -5.036355,0.132586 -2.140855,0.45747 -3.697325,1.331321 -5.476989,3.074941 -0.646003,0.63292 -0.91942,0.83999 -1.294343,0.98026 -1.552585,0.5809 -3.044555,-0.32749 -3.045329,-1.85415 -4.23e-4,-0.80492 0.41808,-1.478162 1.7048,-2.742605 2.04756,-2.012112 4.864344,-3.269501 8.378011,-3.739877 1.468958,-0.196649 4.094082,-0.196138 5.574538,0.0011 5.747123,0.76562 9.478171,3.867792 10.544742,8.767402 0.317136,1.45686 0.345186,2.57552 0.318432,12.7 -0.02861,10.82644 0.0148,10.02431 -0.579129,10.70076 -0.454448,0.51759 -1.024331,0.76234 -1.775045,0.76234 -0.750714,0 -1.320597,-0.24475 -1.775045,-0.76234 -0.477808,-0.54419 -0.540571,-0.78881 -0.578697,-2.25526 -0.01907,-0.73343 -0.06017,-1.3335 -0.09135,-1.3335 -0.03117,0 -0.224849,0.23094 -0.430394,0.5132 -1.578161,2.16715 -4.796739,3.73653 -8.487681,4.13858 -0.760569,0.0828 -2.816047,0.0997 -3.707503,0.0303 z m 3.4036,-4.00489 c 2.936418,-0.24333 5.369585,-1.29403 7.028383,-3.035 1.030732,-1.0818 1.625532,-2.14377 2.026946,-3.61898 0.16377,-0.60188 0.183032,-0.89644 0.190466,-2.91325 l 0.0083,-2.24367 -5.969,0.003 c -6.7014,0.003 -7.087269,0.0294 -8.822258,0.60403 -1.182429,0.39159 -1.829232,0.77547 -2.615426,1.55227 -0.765483,0.75633 -1.198329,1.55595 -1.390429,2.56862 -0.492406,2.59573 0.563346,4.86214 2.795113,6.00033 1.227531,0.62604 2.521534,0.95297 4.269926,1.07881 1.304731,0.0939 1.392928,0.0941 2.478007,0.004 z m 27.330395,3.97818 c -4.084002,-0.4184 -7.082709,-1.78454 -8.910603,-4.05949 -1.541958,-1.91907 -2.208919,-4.61261 -1.803764,-7.28459 0.298636,-1.96952 1.068112,-3.49804 2.45176,-4.87031 1.672193,-1.65843 4.059488,-2.72975 7.161517,-3.21381 1.48958,-0.23244 3.28578,-0.29246 8.83562,-0.29522 l 5.32152,-0.003 -0.0389,-1.7145 c -0.0407,-1.79373 -0.10243,-2.17321 -0.52306,-3.21456 -0.33043,-0.81809 -0.7337,-1.42156 -1.40277,-2.0992 -0.74837,-0.75795 -1.38465,-1.191704 -2.37067,-1.616098 -1.38041,-0.594144 -2.70494,-0.834227 -4.61433,-0.83639 -3.65983,-0.0041 -5.935296,0.856566 -8.295582,3.137858 -0.513199,0.49603 -1.103419,0.98816 -1.311597,1.09363 -0.450071,0.22802 -1.25879,0.3109 -1.746276,0.17896 -0.764946,-0.20704 -1.418733,-0.94082 -1.524262,-1.71076 -0.109288,-0.79732 0.240665,-1.440166 1.485062,-2.727994 1.231866,-1.274871 2.435293,-2.091562 4.184277,-2.839631 3.532798,-1.511025 8.778738,-1.762769 12.652888,-0.607191 3.88169,1.157825 6.6564,3.805554 7.67629,7.325006 0.52919,1.82614 0.51053,1.35563 0.51053,12.86987 0,11.63499 0.0433,10.74094 -0.55329,11.42043 -0.45444,0.5176 -1.02433,0.76234 -1.77504,0.76234 -0.75072,0 -1.3206,-0.24474 -1.77505,-0.76234 -0.4778,-0.54419 -0.54057,-0.78881 -0.57869,-2.25526 -0.0191,-0.73342 -0.0637,-1.3335 -0.0992,-1.3335 -0.0355,0 -0.16171,0.14683 -0.28047,0.3263 -0.7159,1.08179 -2.04114,2.14601 -3.6589,2.93825 -2.03968,0.99885 -3.84181,1.39349 -6.56167,1.43689 -0.95462,0.0152 -2.05952,-0.005 -2.45534,-0.046 z m 4.86935,-4.10791 c 4.24821,-0.65684 7.27227,-3.25133 8.01238,-6.8742 0.13539,-0.66274 0.15652,-1.09294 0.13731,-2.79513 l -0.0227,-2.01184 -6.01134,0.005 c -5.14053,0.005 -6.13398,0.0255 -6.858,0.14375 -3.291987,0.53757 -5.222311,1.95521 -5.849293,4.29576 -0.197909,0.7388 -0.200753,2.22088 -0.0057,2.95722 0.695537,2.62537 3.091282,4.12587 7.040303,4.40947 1.1238,0.0807 2.52289,0.0294 3.55701,-0.13052 z m 20.86932,4.11973 c -0.72403,-0.23838 -1.1954,-0.6314 -1.53585,-1.28056 l -0.19982,-0.381 v -14.859 -14.859004 l 0.22945,-0.435004 c 0.4637,-0.87911 1.32653,-1.358658 2.30349,-1.280237 0.89508,0.07185 1.58671,0.533915 1.97124,1.316961 0.22991,0.468181 0.23805,0.531485 0.26626,2.070447 0.016,0.873125 0.0586,1.5875 0.0947,1.5875 0.0361,0 0.21347,-0.25606 0.39424,-0.569023 0.45535,-0.788383 1.83079,-2.168128 2.76374,-2.772406 1.72714,-1.118676 3.60932,-1.71448 6.03957,-1.911823 1.25747,-0.102109 1.78624,-0.02556 2.3256,0.336682 1.3394,0.899554 1.28101,2.815634 -0.11207,3.676905 -0.36301,0.224434 -0.49428,0.251862 -1.52107,0.317832 -2.04609,0.131457 -3.2215,0.392914 -4.5363,1.009048 -2.36034,1.106092 -3.94255,2.952162 -4.801,5.601642 -0.60273,1.86027 -0.5735,1.32491 -0.62762,11.49848 l -0.0489,9.18633 -0.23716,0.48295 c -0.39651,0.80744 -1.09195,1.25993 -2.00651,1.30553 -0.30268,0.0151 -0.64558,-0.004 -0.762,-0.0422 z m 31.53833,0.0228 c -1.80748,-0.17776 -3.62129,-0.57194 -4.8303,-1.04973 -4.85046,-1.91686 -7.55057,-5.83068 -8.39141,-12.16343 -0.20536,-1.54664 -0.20378,-5.48254 0.003,-7.01324 1.03697,-7.683209 4.87614,-11.888061 11.82191,-12.947959 2.22671,-0.339787 4.80649,-0.308846 6.74368,0.08088 3.04932,0.613466 5.87844,2.151293 7.56701,4.113203 0.63157,0.733812 0.76056,1.016309 0.75811,1.660316 -0.004,1.17286 -0.87114,2.00547 -2.07827,1.99654 -0.7788,-0.006 -1.20353,-0.23775 -2.1901,-1.19622 -1.60148,-1.555876 -3.03332,-2.293259 -5.24328,-2.700224 -1.06704,-0.196498 -3.6126,-0.196498 -4.67964,0 -3.97623,0.732226 -6.41278,3.073374 -7.47864,7.185794 -0.45694,1.76298 -0.551,2.66223 -0.55216,5.279 -0.001,2.93666 0.19244,4.44286 0.81133,6.30767 1.16685,3.51588 3.42164,5.50451 7.07229,6.23745 1.05705,0.21222 3.82175,0.21293 4.9,0.001 1.9479,-0.3824 3.66288,-1.11391 5.57583,-2.3783 1.39022,-0.91891 1.88815,-1.04469 2.80617,-0.70891 1.22163,0.44683 1.6898,2.01557 0.91142,3.05392 -0.12875,0.17174 -0.59604,0.57821 -1.03842,0.90326 -2.1543,1.58293 -4.69816,2.66622 -7.366,3.13678 -0.83007,0.14641 -1.46008,0.19192 -2.921,0.21097 -1.02447,0.0134 -2.01507,0.009 -2.20133,-0.009 z m 19.32117,-0.0657 c -0.78008,-0.29084 -1.38659,-0.92979 -1.58618,-1.67103 -0.0538,-0.19968 -0.0755,-8.61269 -0.0614,-23.79264 l 0.0218,-23.483731 0.23974,-0.488233 c 0.3772,-0.768144 1.27934,-1.3321 2.13092,-1.3321 0.85159,0 1.75373,0.563956 2.13093,1.3321 l 0.23974,0.488233 0.0225,10.018436 c 0.0139,6.201021 0.0528,10.007855 0.10206,9.990667 0.0438,-0.01527 0.33841,-0.349707 0.65481,-0.743186 1.54,-1.915181 3.94431,-3.183197 7.00993,-3.696999 0.59972,-0.100513 1.32822,-0.140625 2.49767,-0.137526 2.48829,0.0066 4.51367,0.303639 6.29275,0.922893 4.42962,1.541854 6.73256,4.719247 7.16986,9.892386 0.0628,0.74352 0.0847,4.32865 0.0674,11.049 -0.0256,9.93495 -0.0259,9.94885 -0.20539,10.3369 -0.82972,1.79388 -3.32538,1.88779 -4.29895,0.16176 l -0.26266,-0.46566 -0.046,-10.32934 c -0.0411,-9.22779 -0.0614,-10.41214 -0.18978,-11.10586 -0.69466,-3.75242 -2.58079,-5.624818 -6.31265,-6.266687 -1.23324,-0.212115 -3.89442,-0.190163 -5.1847,0.04277 -3.48404,0.628958 -5.7439,2.510227 -6.71532,5.590297 -0.52119,1.65254 -0.49923,1.17274 -0.55261,12.07815 l -0.0489,9.99067 -0.2501,0.4515 c -0.43421,0.78387 -1.10372,1.20567 -1.99357,1.25598 -0.341,0.0193 -0.67262,-0.0145 -0.87183,-0.0888 z"
         style="fill:#1090fe;stroke-width:0.08466667" />
      <path
         id="path834"
         d="m 168.27875,167.89948 c -0.40576,-0.18935 -12.60627,-12.47669 -12.74138,-12.83206 -0.1106,-0.2909 -0.10918,-0.73268 0.003,-1.03417 0.0496,-0.13285 2.86634,-3.01798 6.36383,-6.51828 5.58384,-5.58832 6.31365,-6.28969 6.62683,-6.36855 0.78854,-0.19855 0.0408,-0.88716 11.83364,10.89792 l 10.81623,10.80912 4.14861,-4.14796 c 2.28172,-2.28137 4.1486,-4.18634 4.1486,-4.23327 0,-0.11003 -8.05931,-8.17033 -8.16933,-8.17033 -0.0456,0 -1.67474,1.59007 -3.62019,3.5335 l -3.5372,3.53348 -1.41239,-1.41238 -1.41239,-1.41239 4.47933,-4.51294 c 2.46363,-2.48211 4.58779,-4.59483 4.72034,-4.69494 0.32146,-0.24274 0.74258,-0.31193 1.18241,-0.19426 0.32262,0.0863 1.01947,0.75971 6.54175,6.32157 3.39937,3.42374 6.21469,6.28383 6.25627,6.35576 0.1524,0.26368 0.2006,0.70365 0.11432,1.04357 -0.0781,0.30754 -0.82105,1.08528 -6.30073,6.59549 -3.49497,3.51444 -6.3373,6.30618 -6.49818,6.38252 -0.41196,0.19549 -0.96208,0.17257 -1.32578,-0.0552 -0.1669,-0.10454 -5.08011,-5.0002 -10.91824,-10.87924 -5.83813,-5.87904 -10.65676,-10.68917 -10.70807,-10.68917 -0.17238,0 -8.33859,8.17372 -8.33859,8.34627 0,0.19468 8.10418,8.33307 8.29804,8.33307 0.0699,0 1.68882,-1.5621 3.59763,-3.47134 1.90881,-1.90923 3.50928,-3.47133 3.5566,-3.47133 0.0473,0 0.69398,0.60883 1.43703,1.35296 l 1.35097,1.35296 -4.01896,4.03373 c -5.01163,5.03002 -5.15277,5.16686 -5.4431,5.27724 -0.342,0.13003 -0.6446,0.1091 -1.03121,-0.0713 z m -25.06134,-2.09791 c -1.34139,-0.17405 -2.55683,-0.51522 -3.4899,-0.97959 l -0.53176,-0.26465 v -1.63593 -1.63594 l 0.51791,0.26145 c 0.74868,0.37793 2.36174,0.8917 3.28584,1.04658 0.43895,0.0736 1.2581,0.13242 1.82033,0.13079 2.35712,-0.007 3.52052,-0.54088 3.51961,-1.6157 0,-0.48535 -0.23077,-0.85116 -0.71448,-1.13463 -0.57187,-0.33514 -1.02012,-0.48775 -2.95163,-1.00488 -2.56711,-0.68731 -3.66031,-1.16552 -4.57453,-2.00105 -0.95251,-0.87056 -1.32639,-1.76207 -1.32639,-3.16287 0,-1.48398 0.32742,-2.32476 1.27725,-3.27989 0.64191,-0.64549 1.56002,-1.14499 2.65975,-1.44706 0.59746,-0.1641 0.89203,-0.18648 2.49767,-0.18977 1.4713,-0.003 1.95832,0.0265 2.54,0.15389 1.15653,0.25329 2.49228,0.77996 2.82696,1.11464 0.11515,0.11515 0.13637,0.37043 0.13637,1.64021 0,0.82711 -0.0219,1.52576 -0.0487,1.55255 -0.0268,0.0268 -0.30302,-0.0763 -0.61384,-0.22919 -1.30455,-0.64149 -2.91039,-1.03976 -4.50803,-1.11803 -1.16766,-0.0572 -1.70327,0.0241 -2.37489,0.3605 -0.72487,0.36307 -1.11882,1.08711 -0.91972,1.69038 0.21808,0.66082 0.8141,0.92563 3.68715,1.63822 1.82735,0.45324 2.45451,0.66296 3.38103,1.13063 1.67919,0.84759 2.51122,2.14655 2.5079,3.91534 -0.003,1.38453 -0.36285,2.26271 -1.32032,3.21856 -1.29188,1.28968 -3.23382,1.91794 -5.84424,1.89074 -0.65194,-0.007 -1.29964,-0.0272 -1.43934,-0.0453 z m -10.62566,-8.239 c 0,-6.31184 0.0213,-7.874 0.1076,-7.874 0.0592,0 0.39744,0.16966 0.7517,0.37704 1.10826,0.64875 1.7981,1.60582 2.20943,3.06534 0.18348,0.65103 0.18763,0.77719 0.2135,6.48478 l 0.0264,5.82084 h -1.65429 -1.6543 z M 8.6988448,127.80698 c -0.7953189,-0.28368 -1.4101504,-0.97774 -1.5815437,-1.78535 -0.061641,-0.29045 -0.08226,-7.26321 -0.066588,-22.51873 L 7.073415,81.404899 7.2682516,80.981566 C 7.6959385,80.052308 8.4368718,79.58622 9.486415,79.58622 c 0.761828,0 1.315579,0.225435 1.79083,0.729059 0.191478,0.202908 3.685928,6.378679 9.179941,16.223787 4.878927,8.742894 8.915821,15.896164 8.970877,15.896164 0.05506,0 4.115583,-7.17001 9.023393,-15.933362 5.645965,-10.081395 9.03316,-16.045119 9.222433,-16.237641 0.44213,-0.449719 0.871014,-0.626203 1.613125,-0.663795 0.835884,-0.04234 1.364318,0.17073 1.899389,0.765858 0.691271,0.76886 0.633345,-1.36658 0.633345,23.34828 0,24.37011 0.04252,22.53197 -0.53884,23.29336 -0.586114,0.76761 -1.639974,1.08755 -2.632199,0.7991 -0.381745,-0.11098 -0.59029,-0.24142 -0.931487,-0.58261 -0.795296,-0.7953 -0.723474,1.04841 -0.723474,-18.57194 0,-13.78425 -0.0215,-17.298753 -0.105833,-17.296815 -0.05821,0.0013 -3.553883,6.1242 -7.768167,13.606355 -5.247247,9.31612 -7.765096,13.7079 -7.98837,13.93378 -0.491139,0.49687 -0.987628,0.69207 -1.748296,0.68736 -0.752136,-0.005 -1.31388,-0.24725 -1.783373,-0.77018 -0.160028,-0.17824 -3.719961,-6.4294 -7.910961,-13.89145 -4.191,-7.462057 -7.6581,-13.554883 -7.704666,-13.539617 -0.0559,0.01833 -0.09905,5.951698 -0.127,17.462037 l -0.04233,17.43428 -0.232236,0.39506 c -0.604093,1.02763 -1.8299279,1.50955 -2.8836672,1.13369 z m 61.7475702,0.063 c -4.985318,-0.3877 -8.608217,-2.36201 -10.223132,-5.57112 -1.055378,-2.09722 -1.239203,-5.1651 -0.446436,-7.45067 1.04607,-3.01584 3.66011,-5.12015 7.573037,-6.09631 2.170853,-0.54156 2.634945,-0.57135 9.552364,-0.61321 l 6.244167,-0.0378 -0.0011,-1.41001 c -0.0013,-1.60279 -0.153797,-2.55437 -0.567148,-3.53816 -0.9959,-2.37032 -3.275169,-3.942349 -6.374409,-4.396487 -1.326837,-0.194424 -3.812218,-0.128994 -5.036355,0.132586 -2.140855,0.45747 -3.697325,1.331321 -5.476989,3.074941 -0.646003,0.63292 -0.91942,0.83999 -1.294343,0.98026 -1.552585,0.5809 -3.044555,-0.32749 -3.045329,-1.85415 -4.23e-4,-0.80492 0.41808,-1.478162 1.7048,-2.742605 2.04756,-2.012112 4.864344,-3.269501 8.378011,-3.739877 1.468958,-0.196649 4.094082,-0.196138 5.574538,0.0011 5.747123,0.76562 9.478171,3.867792 10.544742,8.767402 0.317136,1.45686 0.345186,2.57552 0.318432,12.7 -0.02861,10.82644 0.0148,10.02431 -0.579129,10.70076 -0.454448,0.51759 -1.024331,0.76234 -1.775045,0.76234 -0.750714,0 -1.320597,-0.24475 -1.775045,-0.76234 -0.477808,-0.54419 -0.540571,-0.78881 -0.578697,-2.25526 -0.01907,-0.73343 -0.06017,-1.3335 -0.09135,-1.3335 -0.03117,0 -0.224849,0.23094 -0.430394,0.5132 -1.578161,2.16715 -4.796739,3.73653 -8.487681,4.13858 -0.760569,0.0828 -2.816047,0.0997 -3.707503,0.0303 z m 3.4036,-4.00489 c 2.936418,-0.24333 5.369585,-1.29403 7.028383,-3.035 1.030732,-1.0818 1.625532,-2.14377 2.026946,-3.61898 0.16377,-0.60188 0.183032,-0.89644 0.190466,-2.91325 l 0.0083,-2.24367 -5.969,0.003 c -6.7014,0.003 -7.087269,0.0294 -8.822258,0.60403 -1.182429,0.39159 -1.829232,0.77547 -2.615426,1.55227 -0.765483,0.75633 -1.198329,1.55595 -1.390429,2.56862 -0.492406,2.59573 0.563346,4.86214 2.795113,6.00033 1.227531,0.62604 2.521534,0.95297 4.269926,1.07881 1.304731,0.0939 1.392928,0.0941 2.478007,0.004 z m 27.330395,3.97818 c -4.084002,-0.4184 -7.082709,-1.78454 -8.910603,-4.05949 -1.541958,-1.91907 -2.208919,-4.61261 -1.803764,-7.28459 0.298636,-1.96952 1.068112,-3.49804 2.45176,-4.87031 1.672193,-1.65843 4.059488,-2.72975 7.161517,-3.21381 1.48958,-0.23244 3.28578,-0.29246 8.83562,-0.29522 l 5.32152,-0.003 -0.0389,-1.7145 c -0.0407,-1.79373 -0.10243,-2.17321 -0.52306,-3.21456 -0.33043,-0.81809 -0.7337,-1.42156 -1.40277,-2.0992 -0.74837,-0.75795 -1.38465,-1.191704 -2.37067,-1.616098 -1.38041,-0.594144 -2.70494,-0.834227 -4.61433,-0.83639 -3.65983,-0.0041 -5.935296,0.856566 -8.295582,3.137858 -0.513199,0.49603 -1.103419,0.98816 -1.311597,1.09363 -0.450071,0.22802 -1.25879,0.3109 -1.746276,0.17896 -0.764946,-0.20704 -1.418733,-0.94082 -1.524262,-1.71076 -0.109288,-0.79732 0.240665,-1.440166 1.485062,-2.727994 1.231866,-1.274871 2.435293,-2.091562 4.184277,-2.839631 3.532798,-1.511025 8.778738,-1.762769 12.652888,-0.607191 3.88169,1.157825 6.6564,3.805554 7.67629,7.325006 0.52919,1.82614 0.51053,1.35563 0.51053,12.86987 0,11.63499 0.0433,10.74094 -0.55329,11.42043 -0.45444,0.5176 -1.02433,0.76234 -1.77504,0.76234 -0.75072,0 -1.3206,-0.24474 -1.77505,-0.76234 -0.4778,-0.54419 -0.54057,-0.78881 -0.57869,-2.25526 -0.0191,-0.73342 -0.0637,-1.3335 -0.0992,-1.3335 -0.0355,0 -0.16171,0.14683 -0.28047,0.3263 -0.7159,1.08179 -2.04114,2.14601 -3.6589,2.93825 -2.03968,0.99885 -3.84181,1.39349 -6.56167,1.43689 -0.95462,0.0152 -2.05952,-0.005 -2.45534,-0.046 z m 4.86935,-4.10791 c 4.24821,-0.65684 7.27227,-3.25133 8.01238,-6.8742 0.13539,-0.66274 0.15652,-1.09294 0.13731,-2.79513 l -0.0227,-2.01184 -6.01134,0.005 c -5.14053,0.005 -6.13398,0.0255 -6.858,0.14375 -3.291987,0.53757 -5.222311,1.95521 -5.849293,4.29576 -0.197909,0.7388 -0.200753,2.22088 -0.0057,2.95722 0.695537,2.62537 3.091282,4.12587 7.040303,4.40947 1.1238,0.0807 2.52289,0.0294 3.55701,-0.13052 z m 20.86932,4.11973 c -0.72403,-0.23838 -1.1954,-0.6314 -1.53585,-1.28056 l -0.19982,-0.381 v -14.859 -14.859004 l 0.22945,-0.435004 c 0.4637,-0.87911 1.32653,-1.358658 2.30349,-1.280237 0.89508,0.07185 1.58671,0.533915 1.97124,1.316961 0.22991,0.468181 0.23805,0.531485 0.26626,2.070447 0.016,0.873125 0.0586,1.5875 0.0947,1.5875 0.0361,0 0.21347,-0.25606 0.39424,-0.569023 0.45535,-0.788383 1.83079,-2.168128 2.76374,-2.772406 1.72714,-1.118676 3.60932,-1.71448 6.03957,-1.911823 1.25747,-0.102109 1.78624,-0.02556 2.3256,0.336682 1.3394,0.899554 1.28101,2.815634 -0.11207,3.676905 -0.36301,0.224434 -0.49428,0.251862 -1.52107,0.317832 -2.04609,0.131457 -3.2215,0.392914 -4.5363,1.009048 -2.36034,1.106092 -3.94255,2.952162 -4.801,5.601642 -0.60273,1.86027 -0.5735,1.32491 -0.62762,11.49848 l -0.0489,9.18633 -0.23716,0.48295 c -0.39651,0.80744 -1.09195,1.25993 -2.00651,1.30553 -0.30268,0.0151 -0.64558,-0.004 -0.762,-0.0422 z m 31.53833,0.0228 c -1.80748,-0.17776 -3.62129,-0.57194 -4.8303,-1.04973 -4.85046,-1.91686 -7.55057,-5.83068 -8.39141,-12.16343 -0.20536,-1.54664 -0.20378,-5.48254 0.003,-7.01324 1.03697,-7.683209 4.87614,-11.888061 11.82191,-12.947959 2.22671,-0.339787 4.80649,-0.308846 6.74368,0.08088 3.04932,0.613466 5.87844,2.151293 7.56701,4.113203 0.63157,0.733812 0.76056,1.016309 0.75811,1.660316 -0.004,1.17286 -0.87114,2.00547 -2.07827,1.99654 -0.7788,-0.006 -1.20353,-0.23775 -2.1901,-1.19622 -1.60148,-1.555876 -3.03332,-2.293259 -5.24328,-2.700224 -1.06704,-0.196498 -3.6126,-0.196498 -4.67964,0 -3.97623,0.732226 -6.41278,3.073374 -7.47864,7.185794 -0.45694,1.76298 -0.551,2.66223 -0.55216,5.279 -0.001,2.93666 0.19244,4.44286 0.81133,6.30767 1.16685,3.51588 3.42164,5.50451 7.07229,6.23745 1.05705,0.21222 3.82175,0.21293 4.9,0.001 1.9479,-0.3824 3.66288,-1.11391 5.57583,-2.3783 1.39022,-0.91891 1.88815,-1.04469 2.80617,-0.70891 1.22163,0.44683 1.6898,2.01557 0.91142,3.05392 -0.12875,0.17174 -0.59604,0.57821 -1.03842,0.90326 -2.1543,1.58293 -4.69816,2.66622 -7.366,3.13678 -0.83007,0.14641 -1.46008,0.19192 -2.921,0.21097 -1.02447,0.0134 -2.01507,0.009 -2.20133,-0.009 z m 19.32117,-0.0657 c -0.78008,-0.29084 -1.38659,-0.92979 -1.58618,-1.67103 -0.0538,-0.19968 -0.0755,-8.61269 -0.0614,-23.79264 l 0.0218,-23.483731 0.23974,-0.488233 c 0.3772,-0.768144 1.27934,-1.3321 2.13092,-1.3321 0.85159,0 1.75373,0.563956 2.13093,1.3321 l 0.23974,0.488233 0.0225,10.018436 c 0.0139,6.201021 0.0528,10.007855 0.10206,9.990667 0.0438,-0.01527 0.33841,-0.349707 0.65481,-0.743186 1.54,-1.915181 3.94431,-3.183197 7.00993,-3.696999 0.59972,-0.100513 1.32822,-0.140625 2.49767,-0.137526 2.48829,0.0066 4.51367,0.303639 6.29275,0.922893 4.42962,1.541854 6.73256,4.719247 7.16986,9.892386 0.0628,0.74352 0.0847,4.32865 0.0674,11.049 -0.0256,9.93495 -0.0259,9.94885 -0.20539,10.3369 -0.82972,1.79388 -3.32538,1.88779 -4.29895,0.16176 l -0.26266,-0.46566 -0.046,-10.32934 c -0.0411,-9.22779 -0.0614,-10.41214 -0.18978,-11.10586 -0.69466,-3.75242 -2.58079,-5.624818 -6.31265,-6.266687 -1.23324,-0.212115 -3.89442,-0.190163 -5.1847,0.04277 -3.48404,0.628958 -5.7439,2.510227 -6.71532,5.590297 -0.52119,1.65254 -0.49923,1.17274 -0.55261,12.07815 l -0.0489,9.99067 -0.2501,0.4515 c -0.43421,0.78387 -1.10372,1.20567 -1.99357,1.25598 -0.341,0.0193 -0.67262,-0.0145 -0.87183,-0.0888 z"
         style="fill:#105ff2;stroke-width:0.08466667" />
      <path
         id="path832"
         d="m 190.60145,167.74139 c -0.15435,-0.0828 -2.35403,-2.26048 -4.88818,-4.83932 l -4.60752,-4.6888 v -2.5791 -2.57909 l 2.01083,1.9519 c 1.10596,1.07354 3.34413,3.28787 4.97371,4.92073 1.62959,1.63288 3.02618,2.96886 3.10355,2.96886 0.17561,0 8.38453,-8.29036 8.35121,-8.43405 -0.0134,-0.0576 -1.82821,-1.93637 -4.03299,-4.17502 -2.78192,-2.82465 -4.0635,-4.07027 -4.18781,-4.07027 -0.12282,0 -1.28063,1.0975 -3.6844,3.4925 l -3.5053,3.4925 -1.2604,-1.3086 c -0.69322,-0.71973 -1.2604,-1.33659 -1.2604,-1.37079 0,-0.11836 8.82596,-9.05326 9.06497,-9.17685 0.30623,-0.15836 0.95183,-0.15967 1.2474,-0.003 0.12574,0.0669 2.99753,2.89578 6.38174,6.2865 6.7077,6.72059 6.46195,6.43821 6.259,7.19195 -0.0802,0.29766 -0.91989,1.16914 -6.35662,6.5969 -3.44535,3.43966 -6.35065,6.3019 -6.45621,6.36052 -0.27767,0.15419 -0.82813,0.13607 -1.15258,-0.0379 z M 8.6988448,127.80698 c -0.7953189,-0.28368 -1.4101504,-0.97774 -1.5815437,-1.78535 -0.061641,-0.29045 -0.08226,-7.26321 -0.066588,-22.51873 L 7.073415,81.404899 7.2682516,80.981566 C 7.6959385,80.052308 8.4368718,79.58622 9.486415,79.58622 c 0.761828,0 1.315579,0.225435 1.79083,0.729059 0.191478,0.202908 3.685928,6.378679 9.179941,16.223787 4.878927,8.742894 8.915821,15.896164 8.970877,15.896164 0.05506,0 4.115583,-7.17001 9.023393,-15.933362 5.645965,-10.081395 9.03316,-16.045119 9.222433,-16.237641 0.44213,-0.449719 0.871014,-0.626203 1.613125,-0.663795 0.835884,-0.04234 1.364318,0.17073 1.899389,0.765858 0.691271,0.76886 0.633345,-1.36658 0.633345,23.34828 0,24.37011 0.04252,22.53197 -0.53884,23.29336 -0.586114,0.76761 -1.639974,1.08755 -2.632199,0.7991 -0.381745,-0.11098 -0.59029,-0.24142 -0.931487,-0.58261 -0.795296,-0.7953 -0.723474,1.04841 -0.723474,-18.57194 0,-13.78425 -0.0215,-17.298753 -0.105833,-17.296815 -0.05821,0.0013 -3.553883,6.1242 -7.768167,13.606355 -5.247247,9.31612 -7.765096,13.7079 -7.98837,13.93378 -0.491139,0.49687 -0.987628,0.69207 -1.748296,0.68736 -0.752136,-0.005 -1.31388,-0.24725 -1.783373,-0.77018 -0.160028,-0.17824 -3.719961,-6.4294 -7.910961,-13.89145 -4.191,-7.462057 -7.6581,-13.554883 -7.704666,-13.539617 -0.0559,0.01833 -0.09905,5.951698 -0.127,17.462037 l -0.04233,17.43428 -0.232236,0.39506 c -0.604093,1.02763 -1.8299279,1.50955 -2.8836672,1.13369 z m 61.7475702,0.063 c -4.985318,-0.3877 -8.608217,-2.36201 -10.223132,-5.57112 -1.055378,-2.09722 -1.239203,-5.1651 -0.446436,-7.45067 1.04607,-3.01584 3.66011,-5.12015 7.573037,-6.09631 2.170853,-0.54156 2.634945,-0.57135 9.552364,-0.61321 l 6.244167,-0.0378 -0.0011,-1.41001 c -0.0013,-1.60279 -0.153797,-2.55437 -0.567148,-3.53816 -0.9959,-2.37032 -3.275169,-3.942349 -6.374409,-4.396487 -1.326837,-0.194424 -3.812218,-0.128994 -5.036355,0.132586 -2.140855,0.45747 -3.697325,1.331321 -5.476989,3.074941 -0.646003,0.63292 -0.91942,0.83999 -1.294343,0.98026 -1.552585,0.5809 -3.044555,-0.32749 -3.045329,-1.85415 -4.23e-4,-0.80492 0.41808,-1.478162 1.7048,-2.742605 2.04756,-2.012112 4.864344,-3.269501 8.378011,-3.739877 1.468958,-0.196649 4.094082,-0.196138 5.574538,0.0011 5.747123,0.76562 9.478171,3.867792 10.544742,8.767402 0.317136,1.45686 0.345186,2.57552 0.318432,12.7 -0.02861,10.82644 0.0148,10.02431 -0.579129,10.70076 -0.454448,0.51759 -1.024331,0.76234 -1.775045,0.76234 -0.750714,0 -1.320597,-0.24475 -1.775045,-0.76234 -0.477808,-0.54419 -0.540571,-0.78881 -0.578697,-2.25526 -0.01907,-0.73343 -0.06017,-1.3335 -0.09135,-1.3335 -0.03117,0 -0.224849,0.23094 -0.430394,0.5132 -1.578161,2.16715 -4.796739,3.73653 -8.487681,4.13858 -0.760569,0.0828 -2.816047,0.0997 -3.707503,0.0303 z m 3.4036,-4.00489 c 2.936418,-0.24333 5.369585,-1.29403 7.028383,-3.035 1.030732,-1.0818 1.625532,-2.14377 2.026946,-3.61898 0.16377,-0.60188 0.183032,-0.89644 0.190466,-2.91325 l 0.0083,-2.24367 -5.969,0.003 c -6.7014,0.003 -7.087269,0.0294 -8.822258,0.60403 -1.182429,0.39159 -1.829232,0.77547 -2.615426,1.55227 -0.765483,0.75633 -1.198329,1.55595 -1.390429,2.56862 -0.492406,2.59573 0.563346,4.86214 2.795113,6.00033 1.227531,0.62604 2.521534,0.95297 4.269926,1.07881 1.304731,0.0939 1.392928,0.0941 2.478007,0.004 z m 27.330395,3.97818 c -4.084002,-0.4184 -7.082709,-1.78454 -8.910603,-4.05949 -1.541958,-1.91907 -2.208919,-4.61261 -1.803764,-7.28459 0.298636,-1.96952 1.068112,-3.49804 2.45176,-4.87031 1.672193,-1.65843 4.059488,-2.72975 7.161517,-3.21381 1.48958,-0.23244 3.28578,-0.29246 8.83562,-0.29522 l 5.32152,-0.003 -0.0389,-1.7145 c -0.0407,-1.79373 -0.10243,-2.17321 -0.52306,-3.21456 -0.33043,-0.81809 -0.7337,-1.42156 -1.40277,-2.0992 -0.74837,-0.75795 -1.38465,-1.191704 -2.37067,-1.616098 -1.38041,-0.594144 -2.70494,-0.834227 -4.61433,-0.83639 -3.65983,-0.0041 -5.935296,0.856566 -8.295582,3.137858 -0.513199,0.49603 -1.103419,0.98816 -1.311597,1.09363 -0.450071,0.22802 -1.25879,0.3109 -1.746276,0.17896 -0.764946,-0.20704 -1.418733,-0.94082 -1.524262,-1.71076 -0.109288,-0.79732 0.240665,-1.440166 1.485062,-2.727994 1.231866,-1.274871 2.435293,-2.091562 4.184277,-2.839631 3.532798,-1.511025 8.778738,-1.762769 12.652888,-0.607191 3.88169,1.157825 6.6564,3.805554 7.67629,7.325006 0.52919,1.82614 0.51053,1.35563 0.51053,12.86987 0,11.63499 0.0433,10.74094 -0.55329,11.42043 -0.45444,0.5176 -1.02433,0.76234 -1.77504,0.76234 -0.75072,0 -1.3206,-0.24474 -1.77505,-0.76234 -0.4778,-0.54419 -0.54057,-0.78881 -0.57869,-2.25526 -0.0191,-0.73342 -0.0637,-1.3335 -0.0992,-1.3335 -0.0355,0 -0.16171,0.14683 -0.28047,0.3263 -0.7159,1.08179 -2.04114,2.14601 -3.6589,2.93825 -2.03968,0.99885 -3.84181,1.39349 -6.56167,1.43689 -0.95462,0.0152 -2.05952,-0.005 -2.45534,-0.046 z m 4.86935,-4.10791 c 4.24821,-0.65684 7.27227,-3.25133 8.01238,-6.8742 0.13539,-0.66274 0.15652,-1.09294 0.13731,-2.79513 l -0.0227,-2.01184 -6.01134,0.005 c -5.14053,0.005 -6.13398,0.0255 -6.858,0.14375 -3.291987,0.53757 -5.222311,1.95521 -5.849293,4.29576 -0.197909,0.7388 -0.200753,2.22088 -0.0057,2.95722 0.695537,2.62537 3.091282,4.12587 7.040303,4.40947 1.1238,0.0807 2.52289,0.0294 3.55701,-0.13052 z m 20.86932,4.11973 c -0.72403,-0.23838 -1.1954,-0.6314 -1.53585,-1.28056 l -0.19982,-0.381 v -14.859 -14.859004 l 0.22945,-0.435004 c 0.4637,-0.87911 1.32653,-1.358658 2.30349,-1.280237 0.89508,0.07185 1.58671,0.533915 1.97124,1.316961 0.22991,0.468181 0.23805,0.531485 0.26626,2.070447 0.016,0.873125 0.0586,1.5875 0.0947,1.5875 0.0361,0 0.21347,-0.25606 0.39424,-0.569023 0.45535,-0.788383 1.83079,-2.168128 2.76374,-2.772406 1.72714,-1.118676 3.60932,-1.71448 6.03957,-1.911823 1.25747,-0.102109 1.78624,-0.02556 2.3256,0.336682 1.3394,0.899554 1.28101,2.815634 -0.11207,3.676905 -0.36301,0.224434 -0.49428,0.251862 -1.52107,0.317832 -2.04609,0.131457 -3.2215,0.392914 -4.5363,1.009048 -2.36034,1.106092 -3.94255,2.952162 -4.801,5.601642 -0.60273,1.86027 -0.5735,1.32491 -0.62762,11.49848 l -0.0489,9.18633 -0.23716,0.48295 c -0.39651,0.80744 -1.09195,1.25993 -2.00651,1.30553 -0.30268,0.0151 -0.64558,-0.004 -0.762,-0.0422 z m 31.53833,0.0228 c -1.80748,-0.17776 -3.62129,-0.57194 -4.8303,-1.04973 -4.85046,-1.91686 -7.55057,-5.83068 -8.39141,-12.16343 -0.20536,-1.54664 -0.20378,-5.48254 0.003,-7.01324 1.03697,-7.683209 4.87614,-11.888061 11.82191,-12.947959 2.22671,-0.339787 4.80649,-0.308846 6.74368,0.08088 3.04932,0.613466 5.87844,2.151293 7.56701,4.113203 0.63157,0.733812 0.76056,1.016309 0.75811,1.660316 -0.004,1.17286 -0.87114,2.00547 -2.07827,1.99654 -0.7788,-0.006 -1.20353,-0.23775 -2.1901,-1.19622 -1.60148,-1.555876 -3.03332,-2.293259 -5.24328,-2.700224 -1.06704,-0.196498 -3.6126,-0.196498 -4.67964,0 -3.97623,0.732226 -6.41278,3.073374 -7.47864,7.185794 -0.45694,1.76298 -0.551,2.66223 -0.55216,5.279 -0.001,2.93666 0.19244,4.44286 0.81133,6.30767 1.16685,3.51588 3.42164,5.50451 7.07229,6.23745 1.05705,0.21222 3.82175,0.21293 4.9,0.001 1.9479,-0.3824 3.66288,-1.11391 5.57583,-2.3783 1.39022,-0.91891 1.88815,-1.04469 2.80617,-0.70891 1.22163,0.44683 1.6898,2.01557 0.91142,3.05392 -0.12875,0.17174 -0.59604,0.57821 -1.03842,0.90326 -2.1543,1.58293 -4.69816,2.66622 -7.366,3.13678 -0.83007,0.14641 -1.46008,0.19192 -2.921,0.21097 -1.02447,0.0134 -2.01507,0.009 -2.20133,-0.009 z m 19.32117,-0.0657 c -0.78008,-0.29084 -1.38659,-0.92979 -1.58618,-1.67103 -0.0538,-0.19968 -0.0755,-8.61269 -0.0614,-23.79264 l 0.0218,-23.483731 0.23974,-0.488233 c 0.3772,-0.768144 1.27934,-1.3321 2.13092,-1.3321 0.85159,0 1.75373,0.563956 2.13093,1.3321 l 0.23974,0.488233 0.0225,10.018436 c 0.0139,6.201021 0.0528,10.007855 0.10206,9.990667 0.0438,-0.01527 0.33841,-0.349707 0.65481,-0.743186 1.54,-1.915181 3.94431,-3.183197 7.00993,-3.696999 0.59972,-0.100513 1.32822,-0.140625 2.49767,-0.137526 2.48829,0.0066 4.51367,0.303639 6.29275,0.922893 4.42962,1.541854 6.73256,4.719247 7.16986,9.892386 0.0628,0.74352 0.0847,4.32865 0.0674,11.049 -0.0256,9.93495 -0.0259,9.94885 -0.20539,10.3369 -0.82972,1.79388 -3.32538,1.88779 -4.29895,0.16176 l -0.26266,-0.46566 -0.046,-10.32934 c -0.0411,-9.22779 -0.0614,-10.41214 -0.18978,-11.10586 -0.69466,-3.75242 -2.58079,-5.624818 -6.31265,-6.266687 -1.23324,-0.212115 -3.89442,-0.190163 -5.1847,0.04277 -3.48404,0.628958 -5.7439,2.510227 -6.71532,5.590297 -0.52119,1.65254 -0.49923,1.17274 -0.55261,12.07815 l -0.0489,9.99067 -0.2501,0.4515 c -0.43421,0.78387 -1.10372,1.20567 -1.99357,1.25598 -0.341,0.0193 -0.67262,-0.0145 -0.87183,-0.0888 z"
         style="fill:#57566c;stroke-width:0.08466667" />
      <path
         id="path830"
         d="m 190.60145,167.74139 c -0.15435,-0.0828 -2.35403,-2.26048 -4.88818,-4.83932 l -4.60752,-4.6888 v -2.5791 -2.57909 l 2.01083,1.9519 c 1.10596,1.07354 3.34413,3.28787 4.97371,4.92073 1.62959,1.63288 3.02618,2.96886 3.10355,2.96886 0.17561,0 8.38453,-8.29036 8.35121,-8.43405 -0.0134,-0.0576 -1.82821,-1.93637 -4.03299,-4.17502 -2.78192,-2.82465 -4.0635,-4.07027 -4.18781,-4.07027 -0.12282,0 -1.28063,1.0975 -3.6844,3.4925 l -3.5053,3.4925 -1.2604,-1.3086 c -0.69322,-0.71973 -1.2604,-1.33659 -1.2604,-1.37079 0,-0.11836 8.82596,-9.05326 9.06497,-9.17685 0.30623,-0.15836 0.95183,-0.15967 1.2474,-0.003 0.12574,0.0669 2.99753,2.89578 6.38174,6.2865 6.7077,6.72059 6.46195,6.43821 6.259,7.19195 -0.0802,0.29766 -0.91989,1.16914 -6.35662,6.5969 -3.44535,3.43966 -6.35065,6.3019 -6.45621,6.36052 -0.27767,0.15419 -0.82813,0.13607 -1.15258,-0.0379 z M 8.7218225,127.71452 C 8.2071542,127.55587 7.6864542,127.09334 7.4195552,126.55774 L 7.200415,126.11799 V 103.71457 81.311147 l 0.2183206,-0.438113 c 0.4180967,-0.83901 1.2149616,-1.253626 2.2782386,-1.185389 0.6533048,0.04193 1.1588068,0.262502 1.5418668,0.672796 0.102351,0.109628 4.206022,7.399879 9.119268,16.200557 6.149894,11.015782 8.975903,16.001232 9.070313,16.001232 0.09429,0 2.923899,-4.9732 9.056501,-15.91733 4.90565,-8.754534 9.036201,-16.05724 9.179002,-16.228235 0.142801,-0.170996 0.470305,-0.413972 0.727788,-0.539946 0.418743,-0.204872 0.538257,-0.224985 1.132481,-0.190586 0.793187,0.04592 1.312873,0.304803 1.708675,0.851192 0.541204,0.747111 0.505946,-0.964639 0.481834,23.392125 l -0.02195,22.17945 -0.229448,0.43501 c -0.903304,1.71255 -3.23927,1.71238 -4.155321,-2.6e-4 l -0.187231,-0.35008 -0.04233,-17.526 c -0.03534,-14.629289 -0.06121,-17.526004 -0.156547,-17.526004 -0.06353,0 -3.525879,6.048769 -7.802485,13.631054 -4.228549,7.49707 -7.812547,13.77907 -7.964439,13.95999 -0.860711,1.02521 -2.734792,1.00831 -3.555259,-0.032 -0.128535,-0.16299 -3.673846,-6.4222 -7.878469,-13.90938 -5.522819,-9.834482 -7.681088,-13.606043 -7.775618,-13.58784 -0.117355,0.0226 -0.135216,1.828235 -0.173183,17.50771 l -0.04233,17.48251 -0.261124,0.46566 c -0.544535,0.97108 -1.6467736,1.3945 -2.7471355,1.05529 z m 61.9785925,0.0738 c -2.299039,-0.16077 -4.639955,-0.73585 -6.216549,-1.52718 -2.072051,-1.04 -3.652719,-2.67039 -4.424676,-4.56385 -0.751142,-1.84241 -0.890993,-4.20153 -0.369861,-6.23913 0.831822,-3.25239 3.713973,-5.69636 7.865372,-6.66955 1.882437,-0.4413 1.92372,-0.44358 8.959562,-0.49553 3.640007,-0.0269 6.648772,-0.0795 6.686161,-0.11691 0.200999,-0.20122 0.07233,-3.025 -0.181839,-3.99075 -0.321471,-1.22145 -0.832341,-2.16239 -1.648036,-3.03542 -1.669525,-1.78687 -3.990061,-2.617492 -7.283408,-2.607052 -3.697698,0.01172 -5.825228,0.845155 -8.402216,3.291472 -0.786977,0.74706 -1.041654,0.93787 -1.411121,1.05719 -1.250339,0.40381 -2.442001,-0.14594 -2.771234,-1.27847 -0.268108,-0.92226 0.103092,-1.674558 1.534099,-3.109104 2.125433,-2.130692 5.118624,-3.438378 8.806746,-3.84756 1.167096,-0.129484 3.94904,-0.105301 5.096832,0.0443 3.211643,0.418612 5.66795,1.489594 7.541336,3.288112 1.515847,1.455277 2.403077,3.040792 2.967076,5.302312 l 0.221716,0.889 0.02797,10.71034 c 0.01538,5.89068 0.0063,10.82977 -0.02032,10.97574 -0.07024,0.38602 -0.477528,0.94804 -0.88569,1.22216 -1.088059,0.73075 -2.655468,0.36124 -3.243656,-0.76469 -0.224561,-0.42986 -0.232935,-0.49244 -0.232935,-1.74162 0,-0.71266 -0.02312,-1.35601 -0.05139,-1.42967 -0.09027,-0.23524 -0.25102,-0.14569 -0.570137,0.31765 -0.171052,0.24836 -0.60601,0.73845 -0.966572,1.08909 -2.428299,2.36146 -6.477736,3.54726 -11.027232,3.22911 z m 4.402667,-3.97141 c 2.055291,-0.35346 4.093023,-1.28738 5.455471,-2.50033 1.057478,-0.94144 2.059525,-2.615 2.41642,-4.03578 0.312234,-1.24301 0.473821,-4.88528 0.231428,-5.21677 -0.103251,-0.14119 -0.454219,-0.14741 -6.2865,-0.1113 -6.565603,0.0406 -6.621703,0.0439 -8.215587,0.47716 -0.891109,0.24221 -2.076027,0.82782 -2.702899,1.3358 -0.706787,0.57275 -1.340494,1.48554 -1.623721,2.33881 -0.205568,0.6193 -0.229382,0.81411 -0.229382,1.87638 0,1.06227 0.02381,1.25708 0.229382,1.87638 0.80125,2.4139 3.115802,3.76155 7.084721,4.12508 0.735254,0.0673 2.844385,-0.0285 3.640667,-0.16543 z m 26.669998,3.97141 c -2.959208,-0.20694 -5.527428,-0.97559 -7.408332,-2.21727 -0.748741,-0.49429 -1.815202,-1.5079 -2.297946,-2.18407 -0.503911,-0.70583 -1.081117,-1.95463 -1.297144,-2.8064 -0.680458,-2.68294 -0.267378,-5.4981 1.108684,-7.55576 1.353786,-2.02435 3.556314,-3.42601 6.582021,-4.18873 1.932527,-0.48714 1.985227,-0.49028 9.126567,-0.54301 3.64001,-0.0269 6.64991,-0.0809 6.68867,-0.12012 0.0388,-0.0392 0.0666,-0.74404 0.0619,-1.56633 -0.009,-1.61484 -0.14095,-2.41046 -0.57619,-3.4816 -0.43958,-1.08181 -1.42668,-2.29174 -2.41858,-2.96454 -1.86198,-1.262982 -4.13754,-1.773245 -7.12644,-1.598008 -3.13011,0.183517 -5.305729,1.14755 -7.480875,3.314828 -0.828328,0.82534 -1.234906,1.062 -1.95149,1.13596 -0.704359,0.0727 -1.188323,-0.10098 -1.697491,-0.60916 -0.339674,-0.33902 -0.454389,-0.52563 -0.538395,-0.87579 -0.212852,-0.88727 0.170722,-1.630273 1.561295,-3.024284 2.115202,-2.120433 5.149512,-3.446357 8.806746,-3.848345 1.17139,-0.128754 3.95179,-0.104157 5.09683,0.04509 3.27633,0.427044 5.84625,1.572636 7.7109,3.437281 1.44763,1.447629 2.30068,3.057688 2.86571,5.408768 0.14166,0.58943 0.15408,1.38602 0.17904,11.4781 l 0.0268,10.84471 -0.23508,0.45 c -0.67572,1.29348 -2.52732,1.54778 -3.58301,0.49209 -0.50668,-0.50668 -0.58494,-0.80545 -0.58701,-2.24109 -0.001,-0.70633 -0.025,-1.34451 -0.0533,-1.41817 -0.0906,-0.23621 -0.25142,-0.1451 -0.57625,0.32652 -0.41294,0.59959 -1.55433,1.68971 -2.25102,2.14991 -2.48546,1.64181 -5.99813,2.42086 -9.73667,2.15942 z m 3.38667,-3.84005 c 4.02568,-0.41712 7.0589,-2.31728 8.42749,-5.27942 0.58437,-1.26479 0.79725,-2.59874 0.79971,-5.01095 0.001,-1.04663 -0.0286,-1.48539 -0.1076,-1.59348 -0.10285,-0.14066 -0.45865,-0.14703 -6.24417,-0.11182 -5.11633,0.0311 -6.26163,0.0597 -6.8971,0.17221 -3.131996,0.55436 -4.966418,1.86784 -5.686237,4.07143 -0.187748,0.57476 -0.224782,0.8462 -0.231927,1.69997 -0.0093,1.11185 0.09029,1.64827 0.455862,2.45534 0.634424,1.40061 1.853853,2.41533 3.599637,2.99536 1.743385,0.57922 3.935675,0.80327 5.884335,0.60136 z m 21.60399,3.73476 c -0.55941,-0.1932 -1.14291,-0.74498 -1.34706,-1.27385 -0.13964,-0.36177 -0.1486,-1.27283 -0.1486,-15.11697 V 96.560233 l 0.17679,-0.38195 c 0.65313,-1.411002 2.50648,-1.790597 3.6402,-0.745569 0.64558,0.595076 0.71268,0.847087 0.71268,2.676747 0,1.211745 0.0276,1.63122 0.11543,1.751268 0.10963,0.149931 0.12298,0.145431 0.26572,-0.08965 1.13006,-1.861117 2.32099,-2.98497 4.13192,-3.89917 1.54422,-0.779563 3.19463,-1.190713 5.11325,-1.273814 1.39933,-0.06061 1.79648,0.01679 2.30069,0.448376 0.8856,0.758041 0.94054,2.222181 0.11439,3.048331 -0.45245,0.45245 -0.79594,0.559206 -2.04538,0.635681 -1.7995,0.110142 -2.94616,0.357433 -4.24676,0.915865 -2.82538,1.213122 -4.75126,3.778752 -5.41788,7.217642 -0.28564,1.4735 -0.32987,2.97508 -0.33064,11.22367 -8.4e-4,8.03996 -10e-4,8.06662 -0.18021,8.44722 -0.35001,0.74462 -1.26613,1.31456 -2.10073,1.30692 -0.16618,-0.002 -0.50539,-0.073 -0.75381,-0.15875 z m 31.94767,0.10562 c -5.99319,-0.48551 -9.85566,-2.96537 -11.95148,-7.67335 -1.22094,-2.74266 -1.79765,-6.64653 -1.56295,-10.57992 0.20329,-3.40698 0.7114,-5.54908 1.87279,-7.89517 0.69187,-1.39762 1.37274,-2.333596 2.46677,-3.390993 1.92667,-1.862163 4.42745,-3.003016 7.60854,-3.471002 1.42848,-0.210151 4.32726,-0.255599 5.5302,-0.0867 3.44849,0.484172 6.28397,1.837392 8.34116,3.980794 0.86213,0.89825 1.06162,1.29905 1.01455,2.038371 -0.0404,0.63459 -0.31328,1.10482 -0.84549,1.45702 -0.28557,0.18898 -0.46899,0.23853 -0.97815,0.26424 -0.92987,0.047 -1.22239,-0.0959 -2.21412,-1.08142 -0.88358,-0.87803 -1.92223,-1.625413 -2.83248,-2.038137 -1.78861,-0.810996 -4.37923,-1.11882 -6.77396,-0.804898 -4.76941,0.625214 -7.52999,3.616575 -8.39955,9.101735 -0.21536,1.35848 -0.26375,4.80176 -0.0886,6.30767 0.44586,3.83434 1.6276,6.39697 3.70883,8.04268 1.80639,1.42838 4.08346,2.05895 7.09365,1.9644 2.8217,-0.0886 4.95511,-0.79415 7.493,-2.47794 1.16323,-0.77176 1.41649,-0.87909 2.07433,-0.87909 0.6889,0 1.13527,0.19296 1.53989,0.66566 0.72312,0.8448 0.60368,1.98825 -0.28813,2.75834 -1.18926,1.02695 -3.6427,2.36523 -5.42109,2.95705 -1.0737,0.35731 -2.63862,0.68479 -3.86181,0.80814 -0.80459,0.0811 -2.70887,0.0987 -3.52586,0.0325 z m 19.0095,-0.10974 c -0.32816,-0.11327 -0.58025,-0.28214 -0.8618,-0.57728 -0.73066,-0.76595 -0.6683,1.63585 -0.64361,-24.78715 0.0202,-21.598302 0.033,-23.473929 0.16185,-23.75775 0.68228,-1.502375 2.7583,-1.851019 3.84692,-0.646045 0.63125,0.698719 0.58256,-0.184289 0.608,11.026983 0.0127,5.58491 0.0558,10.105697 0.0967,10.146651 0.042,0.04204 0.27321,-0.193966 0.53657,-0.547788 1.44627,-1.943079 3.67539,-3.26684 6.54052,-3.884073 1.07716,-0.232052 3.93002,-0.322142 5.43393,-0.171598 6.26615,0.627253 9.77824,3.4692 10.85927,8.7872 0.31706,1.55978 0.35506,3.08928 0.32766,13.18882 -0.0245,9.03096 -0.0358,9.67255 -0.17628,9.97139 -0.70998,1.51079 -2.74073,1.84799 -3.83499,0.63677 -0.63273,-0.70035 -0.58175,0.2121 -0.63284,-11.32783 -0.0416,-9.40617 -0.0596,-10.4407 -0.19349,-11.11328 -0.54617,-2.74451 -1.71874,-4.448 -3.73618,-5.427862 -1.405,-0.682401 -2.76616,-0.933177 -5.08374,-0.936607 -2.43818,-0.0036 -3.94285,0.283361 -5.50334,1.049593 -2.39274,1.174886 -3.72624,3.021906 -4.42284,6.126066 -0.11959,0.53294 -0.14238,1.84283 -0.18511,10.64076 -0.0483,9.95603 -0.0501,10.03592 -0.22611,10.414 -0.24868,0.53413 -0.84893,1.05946 -1.39626,1.222 -0.57894,0.17193 -0.9443,0.16397 -1.51485,-0.033 z"
         style="fill:#083ad2;stroke-width:0.08466667" />
      <path
         id="path828"
         d="M 8.7218225,127.71452 C 8.2071542,127.55587 7.6864542,127.09334 7.4195552,126.55774 L 7.200415,126.11799 V 103.71457 81.311147 l 0.2183206,-0.438113 c 0.4180967,-0.83901 1.2149616,-1.253626 2.2782386,-1.185389 0.6533048,0.04193 1.1588068,0.262502 1.5418668,0.672796 0.102351,0.109628 4.206022,7.399879 9.119268,16.200557 6.149894,11.015782 8.975903,16.001232 9.070313,16.001232 0.09429,0 2.923899,-4.9732 9.056501,-15.91733 4.90565,-8.754534 9.036201,-16.05724 9.179002,-16.228235 0.142801,-0.170996 0.470305,-0.413972 0.727788,-0.539946 0.418743,-0.204872 0.538257,-0.224985 1.132481,-0.190586 0.793187,0.04592 1.312873,0.304803 1.708675,0.851192 0.541204,0.747111 0.505946,-0.964639 0.481834,23.392125 l -0.02195,22.17945 -0.229448,0.43501 c -0.903304,1.71255 -3.23927,1.71238 -4.155321,-2.6e-4 l -0.187231,-0.35008 -0.04233,-17.526 c -0.03534,-14.629289 -0.06121,-17.526004 -0.156547,-17.526004 -0.06353,0 -3.525879,6.048769 -7.802485,13.631054 -4.228549,7.49707 -7.812547,13.77907 -7.964439,13.95999 -0.860711,1.02521 -2.734792,1.00831 -3.555259,-0.032 -0.128535,-0.16299 -3.673846,-6.4222 -7.878469,-13.90938 -5.522819,-9.834482 -7.681088,-13.606043 -7.775618,-13.58784 -0.117355,0.0226 -0.135216,1.828235 -0.173183,17.50771 l -0.04233,17.48251 -0.261124,0.46566 c -0.544535,0.97108 -1.6467736,1.3945 -2.7471355,1.05529 z m 61.9785925,0.0738 c -2.299039,-0.16077 -4.639955,-0.73585 -6.216549,-1.52718 -2.072051,-1.04 -3.652719,-2.67039 -4.424676,-4.56385 -0.751142,-1.84241 -0.890993,-4.20153 -0.369861,-6.23913 0.831822,-3.25239 3.713973,-5.69636 7.865372,-6.66955 1.882437,-0.4413 1.92372,-0.44358 8.959562,-0.49553 3.640007,-0.0269 6.648772,-0.0795 6.686161,-0.11691 0.200999,-0.20122 0.07233,-3.025 -0.181839,-3.99075 -0.321471,-1.22145 -0.832341,-2.16239 -1.648036,-3.03542 -1.669525,-1.78687 -3.990061,-2.617492 -7.283408,-2.607052 -3.697698,0.01172 -5.825228,0.845155 -8.402216,3.291472 -0.786977,0.74706 -1.041654,0.93787 -1.411121,1.05719 -1.250339,0.40381 -2.442001,-0.14594 -2.771234,-1.27847 -0.268108,-0.92226 0.103092,-1.674558 1.534099,-3.109104 2.125433,-2.130692 5.118624,-3.438378 8.806746,-3.84756 1.167096,-0.129484 3.94904,-0.105301 5.096832,0.0443 3.211643,0.418612 5.66795,1.489594 7.541336,3.288112 1.515847,1.455277 2.403077,3.040792 2.967076,5.302312 l 0.221716,0.889 0.02797,10.71034 c 0.01538,5.89068 0.0063,10.82977 -0.02032,10.97574 -0.07024,0.38602 -0.477528,0.94804 -0.88569,1.22216 -1.088059,0.73075 -2.655468,0.36124 -3.243656,-0.76469 -0.224561,-0.42986 -0.232935,-0.49244 -0.232935,-1.74162 0,-0.71266 -0.02312,-1.35601 -0.05139,-1.42967 -0.09027,-0.23524 -0.25102,-0.14569 -0.570137,0.31765 -0.171052,0.24836 -0.60601,0.73845 -0.966572,1.08909 -2.428299,2.36146 -6.477736,3.54726 -11.027232,3.22911 z m 4.402667,-3.97141 c 2.055291,-0.35346 4.093023,-1.28738 5.455471,-2.50033 1.057478,-0.94144 2.059525,-2.615 2.41642,-4.03578 0.312234,-1.24301 0.473821,-4.88528 0.231428,-5.21677 -0.103251,-0.14119 -0.454219,-0.14741 -6.2865,-0.1113 -6.565603,0.0406 -6.621703,0.0439 -8.215587,0.47716 -0.891109,0.24221 -2.076027,0.82782 -2.702899,1.3358 -0.706787,0.57275 -1.340494,1.48554 -1.623721,2.33881 -0.205568,0.6193 -0.229382,0.81411 -0.229382,1.87638 0,1.06227 0.02381,1.25708 0.229382,1.87638 0.80125,2.4139 3.115802,3.76155 7.084721,4.12508 0.735254,0.0673 2.844385,-0.0285 3.640667,-0.16543 z m 26.669998,3.97141 c -2.959208,-0.20694 -5.527428,-0.97559 -7.408332,-2.21727 -0.748741,-0.49429 -1.815202,-1.5079 -2.297946,-2.18407 -0.503911,-0.70583 -1.081117,-1.95463 -1.297144,-2.8064 -0.680458,-2.68294 -0.267378,-5.4981 1.108684,-7.55576 1.353786,-2.02435 3.556314,-3.42601 6.582021,-4.18873 1.932527,-0.48714 1.985227,-0.49028 9.126567,-0.54301 3.64001,-0.0269 6.64991,-0.0809 6.68867,-0.12012 0.0388,-0.0392 0.0666,-0.74404 0.0619,-1.56633 -0.009,-1.61484 -0.14095,-2.41046 -0.57619,-3.4816 -0.43958,-1.08181 -1.42668,-2.29174 -2.41858,-2.96454 -1.86198,-1.262982 -4.13754,-1.773245 -7.12644,-1.598008 -3.13011,0.183517 -5.305729,1.14755 -7.480875,3.314828 -0.828328,0.82534 -1.234906,1.062 -1.95149,1.13596 -0.704359,0.0727 -1.188323,-0.10098 -1.697491,-0.60916 -0.339674,-0.33902 -0.454389,-0.52563 -0.538395,-0.87579 -0.212852,-0.88727 0.170722,-1.630273 1.561295,-3.024284 2.115202,-2.120433 5.149512,-3.446357 8.806746,-3.848345 1.17139,-0.128754 3.95179,-0.104157 5.09683,0.04509 3.27633,0.427044 5.84625,1.572636 7.7109,3.437281 1.44763,1.447629 2.30068,3.057688 2.86571,5.408768 0.14166,0.58943 0.15408,1.38602 0.17904,11.4781 l 0.0268,10.84471 -0.23508,0.45 c -0.67572,1.29348 -2.52732,1.54778 -3.58301,0.49209 -0.50668,-0.50668 -0.58494,-0.80545 -0.58701,-2.24109 -0.001,-0.70633 -0.025,-1.34451 -0.0533,-1.41817 -0.0906,-0.23621 -0.25142,-0.1451 -0.57625,0.32652 -0.41294,0.59959 -1.55433,1.68971 -2.25102,2.14991 -2.48546,1.64181 -5.99813,2.42086 -9.73667,2.15942 z m 3.38667,-3.84005 c 4.02568,-0.41712 7.0589,-2.31728 8.42749,-5.27942 0.58437,-1.26479 0.79725,-2.59874 0.79971,-5.01095 0.001,-1.04663 -0.0286,-1.48539 -0.1076,-1.59348 -0.10285,-0.14066 -0.45865,-0.14703 -6.24417,-0.11182 -5.11633,0.0311 -6.26163,0.0597 -6.8971,0.17221 -3.131996,0.55436 -4.966418,1.86784 -5.686237,4.07143 -0.187748,0.57476 -0.224782,0.8462 -0.231927,1.69997 -0.0093,1.11185 0.09029,1.64827 0.455862,2.45534 0.634424,1.40061 1.853853,2.41533 3.599637,2.99536 1.743385,0.57922 3.935675,0.80327 5.884335,0.60136 z m 21.60399,3.73476 c -0.55941,-0.1932 -1.14291,-0.74498 -1.34706,-1.27385 -0.13964,-0.36177 -0.1486,-1.27283 -0.1486,-15.11697 V 96.560233 l 0.17679,-0.38195 c 0.65313,-1.411002 2.50648,-1.790597 3.6402,-0.745569 0.64558,0.595076 0.71268,0.847087 0.71268,2.676747 0,1.211745 0.0276,1.63122 0.11543,1.751268 0.10963,0.149931 0.12298,0.145431 0.26572,-0.08965 1.13006,-1.861117 2.32099,-2.98497 4.13192,-3.89917 1.54422,-0.779563 3.19463,-1.190713 5.11325,-1.273814 1.39933,-0.06061 1.79648,0.01679 2.30069,0.448376 0.8856,0.758041 0.94054,2.222181 0.11439,3.048331 -0.45245,0.45245 -0.79594,0.559206 -2.04538,0.635681 -1.7995,0.110142 -2.94616,0.357433 -4.24676,0.915865 -2.82538,1.213122 -4.75126,3.778752 -5.41788,7.217642 -0.28564,1.4735 -0.32987,2.97508 -0.33064,11.22367 -8.4e-4,8.03996 -10e-4,8.06662 -0.18021,8.44722 -0.35001,0.74462 -1.26613,1.31456 -2.10073,1.30692 -0.16618,-0.002 -0.50539,-0.073 -0.75381,-0.15875 z m 31.94767,0.10562 c -5.99319,-0.48551 -9.85566,-2.96537 -11.95148,-7.67335 -1.22094,-2.74266 -1.79765,-6.64653 -1.56295,-10.57992 0.20329,-3.40698 0.7114,-5.54908 1.87279,-7.89517 0.69187,-1.39762 1.37274,-2.333596 2.46677,-3.390993 1.92667,-1.862163 4.42745,-3.003016 7.60854,-3.471002 1.42848,-0.210151 4.32726,-0.255599 5.5302,-0.0867 3.44849,0.484172 6.28397,1.837392 8.34116,3.980794 0.86213,0.89825 1.06162,1.29905 1.01455,2.038371 -0.0404,0.63459 -0.31328,1.10482 -0.84549,1.45702 -0.28557,0.18898 -0.46899,0.23853 -0.97815,0.26424 -0.92987,0.047 -1.22239,-0.0959 -2.21412,-1.08142 -0.88358,-0.87803 -1.92223,-1.625413 -2.83248,-2.038137 -1.78861,-0.810996 -4.37923,-1.11882 -6.77396,-0.804898 -4.76941,0.625214 -7.52999,3.616575 -8.39955,9.101735 -0.21536,1.35848 -0.26375,4.80176 -0.0886,6.30767 0.44586,3.83434 1.6276,6.39697 3.70883,8.04268 1.80639,1.42838 4.08346,2.05895 7.09365,1.9644 2.8217,-0.0886 4.95511,-0.79415 7.493,-2.47794 1.16323,-0.77176 1.41649,-0.87909 2.07433,-0.87909 0.6889,0 1.13527,0.19296 1.53989,0.66566 0.72312,0.8448 0.60368,1.98825 -0.28813,2.75834 -1.18926,1.02695 -3.6427,2.36523 -5.42109,2.95705 -1.0737,0.35731 -2.63862,0.68479 -3.86181,0.80814 -0.80459,0.0811 -2.70887,0.0987 -3.52586,0.0325 z m 19.0095,-0.10974 c -0.32816,-0.11327 -0.58025,-0.28214 -0.8618,-0.57728 -0.73066,-0.76595 -0.6683,1.63585 -0.64361,-24.78715 0.0202,-21.598302 0.033,-23.473929 0.16185,-23.75775 0.68228,-1.502375 2.7583,-1.851019 3.84692,-0.646045 0.63125,0.698719 0.58256,-0.184289 0.608,11.026983 0.0127,5.58491 0.0558,10.105697 0.0967,10.146651 0.042,0.04204 0.27321,-0.193966 0.53657,-0.547788 1.44627,-1.943079 3.67539,-3.26684 6.54052,-3.884073 1.07716,-0.232052 3.93002,-0.322142 5.43393,-0.171598 6.26615,0.627253 9.77824,3.4692 10.85927,8.7872 0.31706,1.55978 0.35506,3.08928 0.32766,13.18882 -0.0245,9.03096 -0.0358,9.67255 -0.17628,9.97139 -0.70998,1.51079 -2.74073,1.84799 -3.83499,0.63677 -0.63273,-0.70035 -0.58175,0.2121 -0.63284,-11.32783 -0.0416,-9.40617 -0.0596,-10.4407 -0.19349,-11.11328 -0.54617,-2.74451 -1.71874,-4.448 -3.73618,-5.427862 -1.405,-0.682401 -2.76616,-0.933177 -5.08374,-0.936607 -2.43818,-0.0036 -3.94285,0.283361 -5.50334,1.049593 -2.39274,1.174886 -3.72624,3.021906 -4.42284,6.126066 -0.11959,0.53294 -0.14238,1.84283 -0.18511,10.64076 -0.0483,9.95603 -0.0501,10.03592 -0.22611,10.414 -0.24868,0.53413 -0.84893,1.05946 -1.39626,1.222 -0.57894,0.17193 -0.9443,0.16397 -1.51485,-0.033 z"
         style="fill:#0e0c2c;stroke-width:0.08466667" />
    </g>
  </g>
</svg>
