<?xml version="1.0" encoding="UTF-8" standalone="no"?>
<!-- Created with Inkscape (http://www.inkscape.org/) -->

<svg
   xmlns:dc="http://purl.org/dc/elements/1.1/"
   xmlns:cc="http://creativecommons.org/ns#"
   xmlns:rdf="http://www.w3.org/1999/02/22-rdf-syntax-ns#"
   xmlns:svg="http://www.w3.org/2000/svg"
   xmlns="http://www.w3.org/2000/svg"
   xmlns:sodipodi="http://sodipodi.sourceforge.net/DTD/sodipodi-0.dtd"
   xmlns:inkscape="http://www.inkscape.org/namespaces/inkscape"
   version="1.1"
   id="svg2"
   width="420"
   height="420"
   viewBox="0 0 420 420"
   sodipodi:docname="1087-multigest-logo.svg"
   inkscape:version="0.92.5 (2060ec1f9f, 2020-04-08)">
  <metadata
     id="metadata8">
    <rdf:RDF>
      <cc:Work
         rdf:about="">
        <dc:format>image/svg+xml</dc:format>
        <dc:type
           rdf:resource="http://purl.org/dc/dcmitype/StillImage" />
        <dc:title></dc:title>
      </cc:Work>
    </rdf:RDF>
  </metadata>
  <defs
     id="defs6" />
  <sodipodi:namedview
     pagecolor="#ffffff"
     bordercolor="#666666"
     borderopacity="1"
     objecttolerance="10"
     gridtolerance="10"
     guidetolerance="10"
     inkscape:pageopacity="0"
     inkscape:pageshadow="2"
     inkscape:window-width="1920"
     inkscape:window-height="1031"
     id="namedview4"
     showgrid="false"
     fit-margin-top="0"
     fit-margin-left="0"
     fit-margin-right="0"
     fit-margin-bottom="0"
     inkscape:pagecheckerboard="true"
     inkscape:zoom="2.6043933"
     inkscape:cx="213.26306"
     inkscape:cy="244.16562"
     inkscape:window-x="0"
     inkscape:window-y="25"
     inkscape:window-maximized="1"
     inkscape:current-layer="svg2" />
  <rect
     style="opacity:1;fill:#ffffff;fill-opacity:0.95901639;stroke:none"
     id="rect4538"
     width="394.2258"
     height="161.2742"
     x="12.8871"
     y="129.3629" />
  <path
     style="fill:#135f7f;fill-opacity:1;stroke-width:0.54301077"
     d="m 234.81408,262.53969 c -7.03648,-0.15322 -8.62332,-0.33709 -9.23118,-1.06962 -0.60527,-0.7294 -0.73404,-9.8642 -0.73404,-52.07035 0,-28.15218 0.16344,-51.34918 0.36321,-51.5489 0.53363,-0.5335 143.42997,-0.62131 147.74724,-0.0908 2.92077,0.35892 3.80638,0.69134 4.33989,1.62903 0.91539,1.60886 0.95078,19.58012 0.0403,20.49375 -0.35108,0.35232 -2.55028,0.85191 -4.8871,1.11019 -3.3045,0.36525 -81.52152,1.41102 -115.43021,1.54332 l -5.83736,0.0228 v 27.42204 27.42204 h 49.40364 49.40363 l 0.24718,-1.22177 c 0.13595,-0.67198 0.38026,-3.80988 0.54292,-6.97311 l 0.29575,-5.75134 -11.48035,-0.35753 c -6.31419,-0.19665 -15.94561,-0.35754 -21.40315,-0.35754 -5.45753,0 -10.53728,-0.23363 -11.28832,-0.51917 -2.01225,-0.76505 -2.68458,-3.93025 -2.65795,-12.51309 0.0293,-9.45036 0.63769,-11.44718 3.68127,-12.083 1.19463,-0.24957 16.46681,-0.38002 33.93818,-0.28989 32.66981,0.16851 34.15894,0.26818 34.95375,2.33944 2.22533,5.79911 2.24154,54.95136 0.02,60.74052 -0.80508,2.09798 -2.21166,2.14344 -68.91196,2.22703 -35.54005,0.0445 -68.44199,-0.002 -73.11542,-0.10404 z"
     id="path4532"
     inkscape:connector-curvature="0" />
  <path
     style="fill:#135f7f;fill-opacity:1;stroke-width:0.54301077"
     d="m 45.595091,262.42387 c -0.630433,-0.27188 -1.360267,-0.94239 -1.621855,-1.49003 -0.59656,-1.24891 -0.984888,-76.23294 -0.475489,-91.81426 l 0.377242,-11.53898 h 75.705641 75.70565 l -0.15151,51.83057 c -0.12192,41.70946 -0.28967,51.96838 -0.85907,52.53629 -0.96873,0.9662 -20.47643,0.99713 -22.17145,0.0351 -0.68413,-0.38827 -1.30753,-1.4515 -1.52231,-2.59641 -0.68547,-3.65385 -1.35745,-28.23055 -1.38054,-50.49108 -0.0127,-12.2449 -0.17456,-23.17977 -0.35967,-24.29973 l -0.33658,-2.03629 h -17.24749 -17.24749 l -0.30677,8.82392 c -0.16872,4.85316 -0.57245,21.16384 -0.89717,36.24597 -0.32472,15.08212 -0.78102,28.71472 -1.01401,30.29465 -0.6894,4.67501 -0.82347,4.72954 -11.62758,4.72954 -5.14142,0 -9.9956,-0.18179 -10.78706,-0.40398 -0.95511,-0.26814 -1.64425,-0.99273 -2.04934,-2.15477 -0.83762,-2.40279 -1.54741,-20.76654 -1.99467,-51.60657 L 104.95753,182.5591 H 87.452581 69.947638 l -0.325464,24.84274 c -0.354479,27.05758 -1.149033,52.01358 -1.701211,53.43305 -0.191863,0.49322 -0.881737,1.06961 -1.533053,1.28088 -1.848315,0.59954 -19.5102,0.86125 -20.792819,0.3081 z"
     id="path4534"
     inkscape:connector-curvature="0" />
</svg>
